<mxfile host="app.diagrams.net" modified="2021-02-08T03:36:01.470Z" agent="5.0 (Macintosh; Intel Mac OS X 10_15_7) AppleWebKit/537.36 (KHTML, like Gecko) Chrome/88.0.4324.146 Safari/537.36" etag="pq73P_EnOgBc_OCnl0LC" version="14.2.9" type="github">
  <diagram id="YI8lGZOAFXJcpyaX_GcU" name="Page-1">
    <mxGraphModel dx="779" dy="512" grid="1" gridSize="10" guides="1" tooltips="1" connect="1" arrows="1" fold="1" page="1" pageScale="1" pageWidth="827" pageHeight="1169" math="0" shadow="0">
      <root>
        <mxCell id="0" />
        <mxCell id="1" parent="0" />
        <mxCell id="COHNruM6YLDFT75V-Skk-1" value="" style="rounded=0;whiteSpace=wrap;html=1;" vertex="1" parent="1">
          <mxGeometry x="16" y="80" width="810" height="450" as="geometry" />
        </mxCell>
        <mxCell id="COHNruM6YLDFT75V-Skk-41" value="AWS Cloud" style="points=[[0,0],[0.25,0],[0.5,0],[0.75,0],[1,0],[1,0.25],[1,0.5],[1,0.75],[1,1],[0.75,1],[0.5,1],[0.25,1],[0,1],[0,0.75],[0,0.5],[0,0.25]];outlineConnect=0;gradientColor=none;html=1;whiteSpace=wrap;fontSize=12;fontStyle=0;shape=mxgraph.aws4.group;grIcon=mxgraph.aws4.group_aws_cloud_alt;strokeColor=#232F3E;fillColor=none;verticalAlign=top;align=left;spacingLeft=30;fontColor=#232F3E;dashed=0;" vertex="1" parent="1">
          <mxGeometry x="370" y="100" width="438" height="420" as="geometry" />
        </mxCell>
        <mxCell id="COHNruM6YLDFT75V-Skk-34" value="VPC" style="points=[[0,0],[0.25,0],[0.5,0],[0.75,0],[1,0],[1,0.25],[1,0.5],[1,0.75],[1,1],[0.75,1],[0.5,1],[0.25,1],[0,1],[0,0.75],[0,0.5],[0,0.25]];outlineConnect=0;gradientColor=none;html=1;whiteSpace=wrap;fontSize=12;fontStyle=0;shape=mxgraph.aws4.group;grIcon=mxgraph.aws4.group_vpc;strokeColor=#248814;fillColor=none;verticalAlign=top;align=left;spacingLeft=30;fontColor=#AAB7B8;dashed=0;" vertex="1" parent="1">
          <mxGeometry x="460" y="130" width="320" height="360" as="geometry" />
        </mxCell>
        <mxCell id="COHNruM6YLDFT75V-Skk-25" value="EC2 instance contents" style="points=[[0,0],[0.25,0],[0.5,0],[0.75,0],[1,0],[1,0.25],[1,0.5],[1,0.75],[1,1],[0.75,1],[0.5,1],[0.25,1],[0,1],[0,0.75],[0,0.5],[0,0.25]];outlineConnect=0;gradientColor=none;html=1;whiteSpace=wrap;fontSize=12;fontStyle=0;shape=mxgraph.aws4.group;grIcon=mxgraph.aws4.group_ec2_instance_contents;strokeColor=#D86613;fillColor=none;verticalAlign=top;align=left;spacingLeft=30;fontColor=#D86613;dashed=0;" vertex="1" parent="1">
          <mxGeometry x="488" y="170" width="270" height="170" as="geometry" />
        </mxCell>
        <mxCell id="COHNruM6YLDFT75V-Skk-3" value="" style="pointerEvents=1;shadow=0;dashed=0;html=1;strokeColor=none;fillColor=#434445;aspect=fixed;labelPosition=center;verticalLabelPosition=bottom;verticalAlign=top;align=center;outlineConnect=0;shape=mxgraph.vvd.laptop;" vertex="1" parent="1">
          <mxGeometry x="20" y="100" width="83.33" height="60" as="geometry" />
        </mxCell>
        <mxCell id="COHNruM6YLDFT75V-Skk-4" value="" style="aspect=fixed;html=1;points=[];align=center;image;fontSize=12;image=img/lib/mscae/Docker.svg;" vertex="1" parent="1">
          <mxGeometry x="43.33" y="110" width="36.66" height="30.06" as="geometry" />
        </mxCell>
        <mxCell id="COHNruM6YLDFT75V-Skk-43" style="edgeStyle=orthogonalEdgeStyle;rounded=0;orthogonalLoop=1;jettySize=auto;html=1;exitX=1;exitY=0.5;exitDx=0;exitDy=0;entryX=0;entryY=0.5;entryDx=0;entryDy=0;" edge="1" parent="1" source="COHNruM6YLDFT75V-Skk-11" target="COHNruM6YLDFT75V-Skk-15">
          <mxGeometry relative="1" as="geometry" />
        </mxCell>
        <mxCell id="COHNruM6YLDFT75V-Skk-11" value="" style="shape=image;verticalLabelPosition=bottom;labelBackgroundColor=#ffffff;verticalAlign=top;aspect=fixed;imageAspect=0;image=https://lh3.googleusercontent.com/proxy/_TpnarBop46sd-2e3B4gAlRzpaE0lYJkrzD_E0_G_xLz9zL7UgmNBMG69dWysdwnngLeFPx9tIKUzoIhLHZwlZCnuNKmE6b4jDVWPIQc8YEBfzcAOKlI5nTa;" vertex="1" parent="1">
          <mxGeometry x="26.66" y="240" width="70" height="70" as="geometry" />
        </mxCell>
        <mxCell id="COHNruM6YLDFT75V-Skk-45" style="edgeStyle=orthogonalEdgeStyle;rounded=0;orthogonalLoop=1;jettySize=auto;html=1;" edge="1" parent="1" source="COHNruM6YLDFT75V-Skk-15">
          <mxGeometry relative="1" as="geometry">
            <mxPoint x="270" y="275" as="targetPoint" />
          </mxGeometry>
        </mxCell>
        <mxCell id="COHNruM6YLDFT75V-Skk-15" value="" style="shape=image;verticalLabelPosition=bottom;labelBackgroundColor=#ffffff;verticalAlign=top;aspect=fixed;imageAspect=0;image=data:image/png,iVBORw0KGgoAAAANSUhEUgAAAOEAAADhCAMAAAAJbSJIAAAAh1BMVEX///80NDMxMTAmJiUtLSwbGxkoKCfi4uLT09Pf3941NTMdHRs+Pj3m5uXc3NxWVlVycnEiIiDy8vKgoJ86Ojn4+PjMzMzr6+tNTUxbW1q4uLhQUE/Ozs6cnJxEREPAwMCsrKx5eXlqamkREQ+GhoaNjYyIiIipqagODgthYWF+fn2UlJMAAAC6leu6AAAL20lEQVR4nO2d6ZqquhKGtRKCNg4EmUQFZ1s89399hzDJEBCVXsZz8u4f+1ndEPOZqVJJVQ8GEolEIpFIJBKJRCKRSCQSiUQikUgkEolEIpFIJBKJRCJ5HmOqjm0vYjRWHePTtekZS/VO+spEikYjNAX7y90tMKxP16svgqOvUIIBhjkAmGjafGN/um49YOuRuoK2IkAUfJt9uoZv4Wx9gvnqcpFw/d6GNBY+bWi9Ihjtv1Rj0ElfrJHux5+u7fPMrkpHfbHGw+nbJtbFg/FXA/lf1VWNPXqiARMANp+udndGPnlWH5NI9W/pqR5+sodmENf5dN07sdCe7qEZGEafrn0HtvRVfRFgii9xi94QyOYb0a047/lJtCJxIvZYtPGbAqOxuBJ57+i8LzCaUfefltHC8sVloiJR3KV/8840WoCKOqGuHwsExuOn/E9L4WPNW/soYEIPQ9P1Tdq8609Bp0+L4bJpWwmBgr6xHStG9c5L0iqSiNhPHbO5ykDml2npaWt29luWTqx/SEUbx+b9BHI9zq7B2EDLK+LtFp1DY3sol6Z3doemZsTLf1r7Lpya2oMsW3wwQeNGi4jWiEbTIoB2rUbYyG2QiEWzbJr2TOiRh2ncJFERywK3rvx6drAx1Qm/9dHiH9S7OzN+E3aaL8Z8nwC4Qnlt+Ks9TNQuL3v8r0cRai+85DYD8rq9rXPnYSTSFmPMtWc6GyYNr+8F6qY2t58pNePSsrfbrVfvfdxODua09uDHUH8IrkGrTageCUERZLKotI7DnU81kcxve6fXOFZkXMxsuAFdVSp/5o1Egff6XM7FszY8DEq/HGm8gbj7UFVfY1PWAFCyVi1eNwXxrO8WRtWtB5il3/O6Kbgi+xUrWPuaVYe2xQd4q35Hg0EMxnUB4BYfWPMG4lec06QsOAveobh5cBSOQvxFCnecrQct2XS/HIVk/an6Po/OUYhKzg2eQk20fX4L/58KH/dS+kUKb5zlrrT/s3iuum+aS0f1qRKg+MCMa7Z9kUJrXrPKyhtc/or/TXfBgmojwk/Jl8brxuCL5W57gF5Z88vzzKDexpHC+Yfq+hrWstgP4VDe+6lck0Ykp7CzXdSouKGsUMuWDCCk8ssNdwd8+3cCHuGsNFTjUK1gcEUodm8M9cqmwXC5XoxgIAw2b64f0qonyRot9P0+9GqbIr7HFATyRI247lJy7Pi64fPeh6VA3kRrxfcId7S6TlyPuUjDsMFXNsTzTq2w5h89KkLtnRoumpAu3jJ+H40sGoE6aVRLfjcd0sdHZNae34REsBsnTVdNDo8OZ6x905uCmd1O030orX2+MK4N5/9lR5UIhI1XDsIWr+es6Yx7iARa7hM4O8BMotvU36ztsEmgYCfAMc232kA5cq0Te9kcNkS3/7j6HZi13Nsjyq7ajkbgKs1vYJHsmZxj2809jN3TepqOSGfs6X7rzT0q3ChkTPkrdwYQbTLfs4PFqzuk7delO1kKH2DL3WEURUJyOvzoDi0QUd0Xu1fCnTjQjnc4/j1Gw/WmJxG1jzLWD243dwLPRT4YvbzfT8EU6i5UjeOj2eYhwh/HnN6UeBByJSzxlkSouhmFJHw9Pg/w9tO178Tp1eAgIOJ30YTtM6H4d4j5PWdNrwRzA92LvA5WMXbPxpJiaIrKEBXvqWYEdBXM8dQB4/jbNd4SEP62BkxQda1LOwIabkTc0XdidMQPxiNg6m6+aYapoW7mLZGGQM2r99X6GNb6NCGophIwInh++Z4VsJ2Zd15pikYRYSBEtQNcN8HXt16Fqe1dNrfb7bS4eKP/NXESiUQikUgkEol4WGvb7ssr47m/5PSHZvxsc3rhoGh8IOSnn7ujNwrRNvr6ZxJnJkUv3CkYK0MY9qJQTeJQ6J/d0wzJS1HzTGE/bZjmG/m7G2LskhA8nyKvP4VpWOPfKVxoAFrXq853+lOYxqngax+FcTn7P/rzo7w/hQOfOZ3/9Mhq+kosco8K1RWidCicw7xHhYOBHQS9FGUEp/nkgCe7bSlo0Lbt2CU4jf6fTKmjxdW8z65OELo/v+CWQyzqClnx5oH4+rZpeR0t9j5VJtdb+R6Dba/Xkf3w9nronCaEsFRXgBEs75/BEn78MutkT4nCbnQHc4wwzvIdz3QTsb+IANFrQ/1uxVQVOme/UDxnTFkeKzd+gBB3UdBjxhlHft+1kLaT4uEDprvs1hlL8RQnIJkDS+tkHGk88JNUCNYNCo5uwDg3rioKtxNSKl6v9rrRFRVOsYCu7l9CcgnrzSQoVhjfcwWCCEk+iUxGPIVJdBpgGocNOtf8NZR8QWg55Si0jtr9ubT4cqBFoFVO6eCQRwD0oTCpN9b8kxcElz1FcWcZ1RSS2zKycECD0GPd2IkPSLGy2niBt1gp8b+wU1e4T4o3b3HxWlx86dLQlhMhnAeN9aEwvm9I99nXamxYljxQ1KrCIRtIKOtAFruhDijMDl7UI2tR7BtVhXHgJc3//IOxgbj4+4FNwL27Qje9KWR3RoFsCz8ZM1stifcpKWT98JzNoixNJEyKk4Y9iV5Dx4pCT6kWP02Kz8asml3LjXo/QJ73FMDuSWGcshOX7ykZrH20S13hPScQu7gPuDzzz1hd4xiDu0Ij2mQMK9egDJaMOI+1ya6sYjO0Z7PRLbsdgN2eFN4QJ7Jn+qNoB9aIZYWFa6EswUAtteNa0bRfvaSQFV9LWuZEX0WW1VtN+yjdp/O3cU6vIyXxGG8rZB/GicY17LXNalgeh36+TrGoXnSuvTaNlmerqJDFdHGs5iASQRNLLE2Kigrm/SL5Eax6UciylNHmILmSwkKeww1qzZ6TK2Shp7wYxT3O8hEmV8LL38KZxvmWD6yEtxWeSWskZ1nh3dRgNWy5yZwrPEXFr8ZOFSNqJjBZt5wluyNU+pKnc3cV/Rcvym8rjAZ9W5BcUWEhbZXjQiVHUoNClloJNKVGvHgyVUl8cPVLtoyYQR8KH1S1tOLfx92U/bjFQ5Ur5KUZyIhnkks80bR8yX0obPM0VezSjBm051fNFPJj1FM0toYkuSRaMtP1orDl0m6DwvEPDJWWTVumMI6P/gE+cRsmfpiWkOc+FLal9mtQyNaYtvvoeS+9RjPSUZ3xYWMv6aUtOTTfVqi3T4oNCq0ltIaa5wp3+EEG0CSTQTKv3tluWFKKDfvh2wqZPxI3j6gGhcyPCi2B6rnCqHiANk+PpfzEs05pqgl+46QU/2GT7dsKZ9GGATW3RpPCQGuNcs0VqvAoZDtN1QeFwlJbHDD7x/t2afQJnBiWk67rTHeTQmaN1cNcjaOu75kxdrdLo1EAP7XqbaLiU91e6vKFfFiPV4noZBi8r5C1Ri0OaUExpvsWhYML5SS6PmoYK7eSQrYHwdX8j3nxjDT/LtBT3JudBaQbfjTuR2GcxJiU67BghgZV2xQO4p1SeRLZocw6L+wP2eYIl5MlxX/oBGX9JsgiG4jm7/WVlnmM0sOYHhTGO7hiPtWxzj5T2Q5aFc7Ylp7M7/bkaMUWby3+QUGhxTwD2LyvueruXnzMMQ/egEJoJrlafSkcrBM33/UydQzDWYdxqlyULCHNCgceqw2GvcdemwZ63Lm0pOJFL8bIZLYpWS7i5+xwEjtNCpslg5dzAfvpDNyLry1gdRhiRFzXNTVc3Ou2KBxsY4cDpth1VzjxMpL0kZInaj2Jf4eQu1qlxaOwWBBHIvGzTtyLwsHMTcLmsz+Cg5VMTJvCgU2yeTDpW/fcUGV/6cyvFl+1osJyWDtoy3xe6EdhNDVCHnsN5HD32I6Hqc97her1Yts/lL4GGNH7afvsFxNSWOgvZrH4Xf1itH1VchcU1vyCpRxn2SZv+7yjnrLVffbnmBW8PBUqYN3CMM564YXHkOMKcBZXU2Gv/Vw3RS/+MQxvxdUyKn5Co/IVmDfcCxiFKxw9oFF/FxTfvITH4zE89xL67aiBF8zUJ4+0reks8Lzx9OFrrHhvNG0+YjHUkefZqqhh7BKJRCKRSCQSiUQikUgkEolEIpFIJBKJRCKRSCQSiUTyj/gvaEy34Dsc+9EAAAAASUVORK5CYII=;" vertex="1" parent="1">
          <mxGeometry x="140" y="227.5" width="95" height="95" as="geometry" />
        </mxCell>
        <mxCell id="COHNruM6YLDFT75V-Skk-16" value="" style="shape=image;verticalLabelPosition=bottom;labelBackgroundColor=#ffffff;verticalAlign=top;aspect=fixed;imageAspect=0;image=data:image/png,iVBORw0KGgoAAAANSUhEUgAAANsAAADmCAMAAABruQABAAABBVBMVEX///8Arug7Uoo/ir1SwdsArelTxN1VwtpAibwAqecAq+dMv9o7UIk/jcA+hrtCh7o6SoUxSoYlgLg/vNgwhLo5SIRjxt4AtO4mQoIuSIU7VIsGruc8TYU+SYIgpNoWsebQ4e07uuA3YZctm9DN6/M9b6MfPoDo8fc+eKtLrM9DlcMxt+JEvd624u5PuNavy+BpfKRinscij8aP0vFAa5tlxO2Lmbeg2ul5zeJGnsjB1ufh7PSKtdScqMFzp8yzvdDJ6fhFhq5WbJqs3fR4yu90hqqn2/SM0+XGztxKnb+mscdGu+vD2ehxg6hcmsW/x9ehw9xNY5VIk7dDfqgjVo8wc6lccp2tippoAAASJUlEQVR4nO2dC1vaSBfHq5ALJAEDaCBBQFBQa71gda2otVW7ttpW27Xf/6O8k3DLJHPmkgvI7vt/nu5uW5fkx7nNTDJn3ryZnXqDQevx8Rzp8bE1GPRmeOmU1BucP11c7WYqpVLFrxLS8ue702/3g3nfYhQNzi+OKh5RIaNmwtqu67pZq1W79vfL+8UxY+/x6YeLpZKYJmz68lAuYlU//HY/79tmq3VhuFgUKk/G1phtRGhWu38uW/O+e1i9gyPExcIiso34zLuf84Ygqfe0W2Lba8LWDrO5Mmvdw4/zRgno4IcAGIXNNV+t+v31BF/rSgzMY4PQPLxq7fRVVIcnA6V5URk2aLeRc3b/zDv0ehclvuQRZKOTDY23/G2OZIOraGRIdTacG3mncyrrraOSuDOOVORhc8tCdx50g6OSYP7A2Nr2ch0NuxhRt+wG3qzpeldxyJAMpOL2Vrut11mAZvVylmgXMcmChMiE1LgzZ1bPDzgHVvyEme0tuu2qz61ZkA1+iBZqLj6GY+rdu/TRknLHgLaZidOspeyYrUyy7jgWaV4Qdsw/aWbMi1IqZO4YjI3mDlVSM93ASMdoSCpnLa8epoP2lJbRMr4lBpZMM435z1FqRqNO50LqJl7JW2kk/ikba8rjV+1PsmgHMTK/OlSxWBz+a/R7/wdyDp1H0s1WgmhX0ULNY8kYnU6n0Wg4zpIzFPoN+iMjUxwTGtzhNoLrJpcvf0QItSEVQlqCZCHIjuHy0VcYSOqeJkPWIy4MU7kKBYQFU2FqdPqZdepYmaRaIsWgJRhqakH9sJPl4xpbsFFpi+KZz/HRHsNoFNYhmCwrTSG4Jcty+ltieLoddwR2EM4iqgHAqWphd0eWs0jKhiQG5/I5fWQ9ATgz3jpfGE1VG1aHBKcWjB3NA3OlibO51muU6vx0ejUOXHiYpRooRTgksrHJhlI4MwnBeDa3a+rVVmS0404xgFDseHfQKAbJPuz7wFy2t1EMNzQeck1eum5UuONcEEJtjG4A80qPTMniihBwU7xOe50TLqJbfskFLKRmpo42zSfIG8NkSPnobC6dzUcXLeZuct5VpnBeqI3ljNkKBpEsK1oFQnT9Za6sopvipeA6N7rIGE7tY+lh6JWquiMTwGIF3BjOKXGFnW6Log1yk4sM4UZZZCrklSjQsgBaNrsXk80drnCFnS44QulJvjtz4YodK3BlR3XdESJDhouL5tL1eeqBKTa2bGJfeqMYspr7px9gMkXRNiJWOBwu315hw9VEZgUPgSTXIKAtbUBoirL3tinFdklP0sanVTacwPrXcY59zaZGyo4umZYYmHsZRd5ZZvsldw2/5kB7SyZDJksOzBX6TDn7numXusmH1uNA2wCM9taJBxb4XqQ97zoy2y/1z1xsTdbtSQ7kj2JT0rDeZt/66SbeIX9lWo4rn9yyBktSEwCLXbDze260Tj/CmXyF8j7zEWuXvSjLDDYU3iBbTMN5n6xoY8eR9qafK+8zlzBrTDam1YAskoDhxizKnhe1+JXkbJsxvmSW8AfGvdHRkID/X0LKe3L/i/wzU4fwvqKQf7xnwDGq3A3DI5loYcMhpFwu13w4uT32dHvy4KA/QJDBH9zwfYzWzGvBz5YZtUCv0qYErPTPRAsslEj53NLD8c1m6Jq965vbh3wO43Owz1b2wpdiwtGeFDA8kgMNGW7KJd3eUCdXm19OcrnxJcGaicHR3ZLilQyP5EEbz23yuebxJo1rrOtbaYTH8+Ey42FWFbxOfKtlvQm3lMsfC0z1r0+Qc3J+epZeCkzobQZ61abXNZ/2cg83/GBDfXFyfB+OijjVcEAFH9A90uG7uFY+4/LFoK7XyqHESIajji2BSTgjkXBdOVs+i7xKv7lW5oL7SoUjvoVCH2xJhJRMIFuL9fxhU+P5AuVP1EpAGnpRh/9cka5pkbzRr794TCe/p8WcGZ4QUPM/Tx7Ryn/HJUPqcTkmNeLCo5Mlmtk48oiWTejN8HcccDu0kAsZ7gs1/+9R1uqGSsRoQ/XWmFFHD7luwHA0s1kVm7YQ6RqtHDvS/PqbaTrq+CRQwG9oZmvU9dVPNDhNSfgFuU0mHLXK4YajLeFY7ne00oZNp50lS4bUY7ml/Av0Sr1qt3wfRU2SfW9RXl/5CsAlGGo+sYIO8kq9+hkfdtFqmzOaVuir74kPNsp/pYHGhCOPvczuYQv/GNqQxHqZfD+6TngglRbamzdnDMP9Ds7ldLN7FypEJxSzdfyPiVZ/zw6NZTglG1jWM0k7XGgrCRbu1qv7rwUtkE70Wo34XuUxXACsPvZ0b+UX7pRaKmmED82fTuA9V5S6bWHvSOvtAFryyV8AbTLb0avP0F45SiaxKli8rgZq3Npc0UaG07uf4dVyWibBgnUlMDgpzxktK++shpM+JorZ+pjZbPyTkx1DRkBDcP+Ek75flKEkHm2BgYmWWorkRUMzRsY4lrJMgpktmEhSCzZONI2j/lBcso0lEnxQUk5rbwwXmlbW3rE/iuKS2JBEf4+jcXx0emhlhevycJa0sL1NK7jZ0vJIHrTyGmcWg83mYEMSW/OzpeWRbDSBtV24cAfqNhon709ebE1rrMVEY6dGn+BnAFZwSxqawI39MqWqzUJDqVHEX+BZaSP8DpxHJ6dW2hhomuBlKdObEukxnr7S/irL2uzR+JI+JrgChFxyQmf/SiX/09C08pr4NW/9LoltDCK45JiumwIZjU3jTvqYsHAzikWjM3qT3CK6pCczpRYAAFzUB3r4gEsd7ljrd5zQWoJfwSXpxER6QiWU9DFh1a0xenXc3bnWaYBm078nSzRVL7SaLJj0MWErJdh+BngnYTW9RkWBRziiSR8XNpjs+9gM+PEd51uYkXSm+UyWjZeOsccA/s0p8D55wmPJBDVhi5L0cfnDzfFvvYH3ycfYusShoVdGTPqYNkmpZBhucAVIAgEWKgSRkz6mGyiVwG0pwBdvEtJmOXLSxwWmSXhTci3tjmDRkz4uLE36d5HCPQBSK9xJCxtxYXtIoXAT3dczP/kHXI6frQCxpVsBkhScJiGXTLtnT2LqQWxwmky3uiWoQc6ZTtjwNAmmknnfM68eK6pqGH2vBYfDVQLE9z/OS+eVzKRzCtYqBRxN6im1IkpeB1BbEpBtcdLkE9hyBUyT8+zkKSSQDZwFpD7iSkwXUCMSsDVRinPuhHUBtTQFhyULU97eXEFs4OwtVsOQmeoK8sn/JtuizHD+z/bfYVuceBOvAQvD9q+u3f/iMVeE8eSiLClQ5gEAWmqPFZNXhPnbDJpTJ6NzYTbOThqvQC2QrQ2xwXuMX5kGIBu8hrcoA5Me1KGWwrYwBQ7Mk+C6srkwCyYGxAYOTBZnEe8IGnQZ83psmpzAQRf8KH9hRstw8QYfCCzMCiVc4LBkgv13wo3SUxNYBKYzOL2+br/44RbmSQ7IZoy46luVhoXtE1iYqcAPMFG26/X1dqWzZLltJ/3vGy6MU4KJMrP90nescTvNjr8kLMqbCuBMQMXahFqLmCkHYMCp/ncYLH82WZhnp6BPTrpEh51yUcbL4KhLxbqgYi+dryxINoGXTAw/2zRT6nW7n0ttw2KiAkcmmSLWZnf0Rr2+3u5bS9LDvG+bT3AywZ3S25G7vjVMnwtiOHDdPOCUnfX6+ktjVBgWxHDgVCBTxDKlZU/IXMNdz/u+eQQPl3GnXLL8xVxqzvu+uQSuK2RUStPu/PG875tHcBVQSY2+J165CKNKeNgVyCa4FiOdwEf54NkkaLgvs7rBGAUHfgpX+EBhm5lXvovRawlwSkSmybQzN2aUK3vlrJaNbDpSpiyoiEyhn0uRP0mSAZKi8bVOICuUKdVCZmfYrop+WMosQm60s0qL2NgyUL7dc6Umm9TpB4qkPzyZ9qOM2MABG1Oq2LlSjFNu0s4n/s1+5UjNiR79Thk48IZ+Hpi0lCoc3vIvWrNELJuo2L5IRmN5yUkcaKpQN8Mo1QDLJoVAYziqU6ZZCQiNGqM0Jy1RDMc4EExyUnJLYg/KCNXggmI41qFZKcUc1PZVuBrgZaAQ+DTWcQlplAJKM2LRaoC9bqjihzGxz6lIvohTO74KVgN8UFnAz4hhH+WWu00WjdnJRKgaBOp3oKcf84CRfDPBoGN3ss3uiYxlA4bD20xynFYq5YT76kO6YKMpzbwjYDo84ozAqZfMs46QXyYzEx8YFegowOntoAwg5fiXbAKpMvj5HIe5SfkEUspFKeQ1YbTRsRn8cYDPvwv7eHd2rnNmc82YC84HlQrBa4Ia34vEn58xtmA6UTZ4zvSUcicxckprd3RwfYFyIiCWtrnjAF9iDnol52lM0elaP6YnTtO8Eot9KX/N9+nYdKAQdAyefDKii+CZ5z/8Z2mrGfC8guB3zFlaW9N0ohLcghcO0TXFCkLvqVLBVxJVyCvD5YizGlyNvVIln+7JfdSslM+dXPOSHRyVKqE10lCihtCWeKsBK5YFjvWUcrkT+olNrgZEMO/rJQ27FPL6DVc1OBjuigaLp8bP5uJJJePiHJxNtg6uMgCY+/3uhm8CQOOsBkcF9KHwObpZLWw5wwCt2ShmKpVSaffq6eBxMP5qe4PB48HFlVGqVArgcj26i7DdQLQlrmrQKwGODsJ1VFWFnhuM9/qrlYrLWBr+0/0XDQtyHRoaVzU4L7MGc/gREV5rEBUwnUEFgMmIRzDT0VzTMecGZ8yupM1wtxpV7RDonEho3lnn4auy5yIcMcdk89e5SYcJNRN+EtmIwuauapMuyhwW8TyeYM8Mp9fBTpw3gmHXEWdTM/5VbRE0aYmNxnMm1Ng/HPwRUJBOPNzQcIQc7uwhEec7L+yQU/a8MwdChkGeOY07rFEbJxuhqHlXY4p7upPlaOCMvskG4eZVtT82XpRwI00AOFY0BJ4FhhtBEq74Nk++dxUZz8OLEG5Ew3EM0UVW7jlWmrLKvgG9L6W6vVUt+M0VioLz/ZH3M9AkkTkjz0FlivwBHl3gTXr4Jbzu60rw3bm/uU4HhE0XWf5139GhyUw00eVDdrL06HboA0NxTQ2nZPmWMSKs2HMedaJRHDOSCtrEHfnQoqzXcx7VKu/vJko3NJyyweWOKPtHexTBx5Y4naooyh7v2kzkl1x44ZKlK+xwk8V4f4d5el4KdO50iftc+nycZxDcbC7dBzUunlv0BdabYr51pfCbTpGVHWS8yHio3HfAtxotwt+wJ9oMcZ+f5NlO1naMSHgIzGhQTPayHoJL4GEtXxGfGk/e3xEOPVXdpYFZHbuuty38DwWev8Fin6Qawst+2M4YfGNlwzDUbdoLtkuW8+LuKqlXMLiEntNyHc6MSf69Ure3tovoximE7t8Wttt2fZ321rfVXx5uBvJ7ZXLvfWzyHYnuY3P3Xel6vd5ub20XPIiAMmphewth1d0DIeslmKzRnuxPsyeGS/JlpB7XoeFTTc8e1V1C224jyInabdvWXarJjsFgLPndcbqtsP4y+rFYZS0ssXQZPBBXdxl9Wg5sjV8nPpS1nNI69oMj3036bRahoKMfjE5QvU8iq9RDp7M66bxiBR5mvx9a4JZXBNn0l6BTIpuFyNDPbVmJvqUz1RnRdHJ75dM+tqwo79BODicLZ7MaLwQypPVSWhuBSKso8s6qXl/d9i8Hy5/AFiGQsFGH1W+vkw1v2unt4+2theiGsaWvtn9psqxECzc34EaGs6xGyQbI9G66LZDfBUodMtvowiur779mXespWXGXRIHkgTnIZGBTtxSNNlQPjzrZ1w1EX1l5/xVZL0K4LdctFGQuGGTytI02FJYwAyeEu9b79VvYJV2nLFHA3NPUZ9Tw5q+JY8phDh2+QyocJf/oteXZNVCcOCbxYPekZVZn22Jw4NFFyPbiZDMJNFybbj0QHYBEILuby87WzbNP6bqkjmw2tz27re9dMzXL6bXq/Mhc9U5rtVTo9Kr9ChrcfHyumkmD1bqHr6QDzOC0liSeiUz2mrbG3991a0ng6WbVPG3Nmyakn3fovmLFHnJF+xWCDXV/+YzMF4kPGaz759vr7pLY+3n63BWzn27WqtXPl68keTDUu788rHWryIJ0RF13sbr23bfWvG9ZTL37j6eHdrVardVMc7hytzz8hYhMs4agas/fLz+25n2j0dVr3X/8dnl6d/jn+fnZRr8+//l+d3r57ef9IMU8/z/7Lk90ho+UvQAAAABJRU5ErkJggg==;" vertex="1" parent="1">
          <mxGeometry x="286" y="239" width="52.37" height="55" as="geometry" />
        </mxCell>
        <mxCell id="COHNruM6YLDFT75V-Skk-17" value="" style="points=[[0.35,0,0],[0.98,0.51,0],[1,0.71,0],[0.67,1,0],[0,0.795,0],[0,0.65,0]];verticalLabelPosition=bottom;html=1;verticalAlign=top;aspect=fixed;align=center;pointerEvents=1;shape=mxgraph.cisco19.user;fillColor=#005073;strokeColor=none;" vertex="1" parent="1">
          <mxGeometry x="272" y="392" width="50" height="50" as="geometry" />
        </mxCell>
        <mxCell id="COHNruM6YLDFT75V-Skk-19" value="" style="shape=image;verticalLabelPosition=bottom;labelBackgroundColor=#ffffff;verticalAlign=top;aspect=fixed;imageAspect=0;image=data:image/png,iVBORw0KGgoAAAANSUhEUgAAAMAAAACCCAMAAAAnkjdSAAAA0lBMVEX////1hTadUCWSSCH6iDfScC+YTST96tz1ij7gyLvzeCXIo5CtWiiPRiHvgja9iGvWaiO6YSv/jDj3o2v2llLEZyz7yKShUiZmOBiIQh99Qx1lNhju4dnHm4L7+PZtOxmjWzOlXzjadTCMSiKXUSzo1syDRR+dVSTBlX32lE7+8+vv4tz707f+7uP3nmH5soL5rXiqjnubemSNaE9yRifd08z5u5LailXEsKO5opLy7uvSw7l9UzevXyejZEPIj2383MXqtJHQsJ+rclSqb1HafD9xKb62AAACwklEQVR4nO3ca3OaQBSAYRdBsSLWC2ItrglKasSqvcQ2tDHp7f//pe6Ciga0TWfs2RPP+zVfzjMbhZ1xTqFAUQrnjT91JtBD/HPc61+UDP0aKUGOr2kCwFi7M+HQ4zy1ZPw1AB+Bh8n4WwAuAveq6/F3AJLwFnqyv4oH6fh7AEkoQ0/3x8T4l5p2AKA+gQf9vfEzAMUJmfFzAAoTouz4uQBJUPILqZId/wCAMSXP4JwAJgFOEQGgIwB0BIAODSC4by0fcu7pSABB/cKymWm2ltNHFywUgKAuZrLsZChzNp+W0/dKDIBqPNMGEI/SnnfKyXUdA6CeAcS1F52HCa8U0QJk14u55Yo/ogUwpuu2bzSEooQUIAnNxwhcgA2C+YbjYgWsEc1GCTFAGghAAAIQ4HQAhhngupplN+P0Y88zRQHiHWF41Ru+ubtzDN9m+kGIooDxsDcYdLuvu93uoNe7iiG+gGRPRFFAePPl8+279x++fhQKUQppOL5tbw5EVxYg4zyKQm9PIh1ryPY/S13AtliycybJkQhJDLGUfBvNT0qi8OZWfLzFRyQ+iqKi94GjVeIrQGn/UokKoOVEgP8YAaAjAHQEgI4A0BEAumcO0HczlfwB5nGA7+zWr+b3bSmaKgjQWeNVbbdiXrXayxeiGQJA7vwbQEtRQP7QBCAAAQhAgHMBHHx+YQAwZriuViqifRLH2bbvG45jWZY7EuEDbN+pmRmEQeV7dVz/sVqNUkwCYAt1AdsLTXofiDaUn6vL0ejXbN7J+0WkcoC8GxmPvAroReeZXykJcPoIAB0BoCMAdASAjgDQEQA6AkBHAOgIAB0BoCMAdASAjgDQEQC6cwKg3/CkJgD9ljP0e+YK+Df9FdDvWpQd3Xap5O9FM3EvPQWE+0ZlPKxi3vgqy+7chZ7oySHfeixDvnc6Dvfmb4pC0W+E1nXlnlXC6AAAAABJRU5ErkJggg==;" vertex="1" parent="1">
          <mxGeometry x="386.09000000000003" y="396.4" width="62.91" height="42.6" as="geometry" />
        </mxCell>
        <mxCell id="COHNruM6YLDFT75V-Skk-20" value="" style="shape=image;verticalLabelPosition=bottom;labelBackgroundColor=#ffffff;verticalAlign=top;aspect=fixed;imageAspect=0;image=data:image/png,iVBORw0KGgoAAAANSUhEUgAAATkAAAChCAMAAACLfThZAAAA0lBMVEX///8AK2QAKWMAJmEAI2AAGlwAJWH2+PoAHl4AIV8AEVkAHF36+/yWpLkAGFsAE1pNXYKhrsHw8/fDxtG8wMwTPHELNWwhTH6+xtRviKiJlq+crcMAAFQAFVodR3rq7vNhepwAC1ff5Ovi5+3M093U3OazuMY+VoAAN3AAB1a3w9MAAFZYcJWToLc1WYd+jahwfJlHZo8lPm9kfZ93h6NGW4MzTHmpuMo/UXpfcJF+iaNacpaPl60SQXaRpLwtRXNaaYs8XopEVn2CiqKHnbilqrvGbNwTAAAU20lEQVR4nO1di3aiOhQ1IUAiiIUWRKqiPNRSlfrCcZzW9k77/790E7UV8FFbq32Me927liMUwjY5Z5+Tk5DJnHDCCQeCKMqf3YTvCNnx1PbIET+7Hd8NrvfUzSp8Pjr/7JZ8I9iOWc9VIwVBAIAS2p/dnq8P0fVMVc39uRlHBsYcmAG1nM9u19eGE+Ssm3GjYRhYIojjMARwzlz3xNxm2Jc3Z1ODKGU+ny9T5LN60Q85eGJuO8THXzris7XmQ7V/N2IIfPvRs2/5E3NbcTcFOItbI5uKN/lZvgXdjqxVr68U7mTnNsCMCMIVNSV4g8lDlzHmqJESap/Tsq8NMQcwjEbpr/3qQ6uiX7JPhXL9E9r15eEOBNwL50GCaNue6s0+2uGk2O8X2EcPR97nte/Lwh2U0dCcf3as23wt22SjVlQnxctBh/VE0aoNTkJ4BZQ4Y7ww/343S0UIV2DMedXiXfj4wLqif6sHn9nErwl3kAcDd/5ZrCpMgeAJZU4bWI+jsPhImZOt7KnLrUCmPe6ZuIxXm0k3nQ3doK+2R3dV1tcCMvQ/sYlfFBYWlkrNA3leyUeMLbE6evSeLtgw9no98xNb+EUxwuTXUuKKntpuXzjMyvldv+hY3sDJeJFhnhKbafg9pCfkhiwuMpiu5+Ts0AttNcKnHrcC8R4Jd5sOymLGlt2BkT8puVWEgHS2nuC0FHzyqqsY6QLeFo3Kl1y5eqzGfCfY95hfiVVjcIqK3j75hlXIFpBaWw6bBaVxihzWwYyIsTnnpqlYmJz07zrYNxhfbhyLmiXBySmXuQ6yCnB3o9sUrfyJuA1whgQGG7tcWzkRtwGahbfkx0c6ik42bj08A1U2xgZ2A8FT4LAe2gPi/2yssbkzyuExW/OdoCrkbONwFO/x7TEb853gChxQNx71fmU3pgH+dXQxGm8O5NuGdMS2fCsEJW66Ja66ybZO0epaaE0ObPEA/llt80j+pyH3idDYInODqeJuPvovYwQ4Y1tyKScUTsnMdfAbHOlvOS7/rfVPxTdrYPchKmwbjc64tjmF8g9DbhucsjWyMqPSKfJag1GPK233nCPQPGVJVuFFQrm4fU3IU75zcq0r8BsC/7Ddcdq/s9WTa03Dr2CyOQ+8OGeYzZ0WKqXgF7DwaoW52cyeHEQKXkECr6fI64p+Yi4B7YJgY/AqcZqVfzi51jj8sEai3Oum32mVT+WZMTj1RpmMd6mC827LT4dvz3eBo45h9lbdaRCeK8apWm4BN3dv1IzQ2ykWFXPZU0nwHJ51ZmRB6O2Y/bAn+ZOZo9Au76cgi4r+ztLWuVVOZk4btXqA1ITQeUPOyKtV/m0zJ3thh8OE4MLoTak2sZ29/1fNnCyK3uODdKVgzpj238qC1in//QeDVlmzbbP4kL8qS8iYDvujt+fEXQxyB2jZV4boOp5aLShXeUXQo/ubO/NdXSe4iv6p+lbb93KT22wtKxmUNOsyeK+ukKvK/b8TtGpeffAgZfP87XCQU4O3ONIViDoefFjDvjjcetgQynkyHDyZu6rdzTCvjPZHtOrrw8+NdYnPR5bpf4jwr0rRP6HmHGtoSGWjf+F/1MQyIvf/wBy1aDUgVnTrY3rbDEEN3nzYxb4sRkNA8reX9kfOxlex8eMrDv0WRIqwrazmPeCE6Q83c2Jb4Dmj+NGXvRPQ2Udf82vB75aFXvHjs2gNYVs94veHVtcVo3WAiT1TF4yfHHo51hVq5A6hHfqQm/7gPInfqhnVg8wk+xEnTA5x4a+BoFPWc4epNAoBkH7uYK33lMr70kevwmsI0DjIlb8CRlO+cKhctwUh2rI0/XtjNMWFQ2XPzIgD/E8NILwGPlgZqhYSAPI/1MzZN3ifNafm1mFeNyAA2R8aeqmKlN4/9A24VLZ1KL/BNvi++pmJdG+vzVX9NZX6zkuliR1mwUMPXv/I3JxmXe1TKROC0sp3F63FBUW1BizvHmV/pJ0ziX7x/r/2z1At/Z3Ybi66YUCM0BbvyY+0c04X77MR8qXBNdPf+Q1j/sYHswLYCwwGQvmj831fAGJY3rzq/nVoA8KtbJZWx3jWixfEZdoG/vCM3+dDJduWQL8KKnNJOpi3qyTPmKtXSH+W6gum5GGPe3xNmAaw9olWnyBQ0vGBB2G5nrFzBm7MMwj2fwTucY8vCS+SJvsIBmdMwFVqsGtFDLA1ugECeJYr1VfWIH4/BA0+2iuxZBoQghT1PoEA9noQLo3bpUF+lKHzqj2s7zXn4E4IQN3kaJcnGAAAKaOlF0rFHvopOWE/eJz0ACqjNUNVC+66XWDMoXe7xceRt75jyioCoJwK3Jwae0ML/V+IeYUqAo8f2f7jQvRGj8Vqp1DIXpVKV3ksgNuV5aiyV7y9rpUlLCyACFHytevSdbPTD4MgE2dJDhhBfIrVJgcg/Y+OWLi8ui8I028Zuoqa2tevrssSx7rRdDqNfp31H9NGW7bVQq0Mjd70169+9Rn9xq9f02nPAES5LlEGC4VWcYburQTZO2yS431Ug9BojUIDAsHwXrhrYbiXK/ocaOfVstD7734cDu5U9TLw/bWl+G6ueQ2i+/DSW+kdrm9e3oX98fC/aQ+ScpmXMCbC7G1dfHKwutTAsReQiBbgACdVTdee3csBUKi638vWyV6fRDe54JXB4pqV0nTc9rY+nOsHIyu8uW9MdSQhRKnjKglNIleJ0JjFqFpbpz6WKJW+eu5RPAhQaXyrPdLFUaSHr4op2i1r+u8dS1lF1wvUP3/G9xEHJCsxBkdAeCmTG40h5iBHlGytVssiRCLrO1X1i6qhX746SHzLkMabd8ZcD9cPMZfc3NCLBG4ZyznqIIIKJghhnDfG7QNNrR0IYk6JRq90JU3tKg317YpYm6BkmsXvcnkrfobtXTyF/W4rDOvmXlXGnwHbAtH4918Ka0Nk790YfPieceShZGmXfQNRJ+1AZc11HPtbrpTTRt3mdb7CSXhtNZH4GCm9dywMoZy0CIp3OTs0OOlHhaeybdviI8HROu8aNIx8y3/XQDJ51IgRZYcA5n/cJvJa0SivjCMKs2vwwuM7DXcBgVidvlYU6Fj9lqNyC4Ief7UmbDQfCO2J71UKRZ7cL4nyOxhC4UeNVfbGAUIe0p5Tdu/0LIbvL3v2pdh+mvIIEsDBty3b/Pqo63xyNz1Rc4MJKmMQvb+uVY6W9auy3S/TDmdYP22sPin5C8dx3BkcxzfbXVzjiXEWvj97IRc51J0bTtkd6TyNSqft7xfRvwJvSErgNpq0KCadW76W57ExHLxD+i6hGsJ8oyDRVzs8B4lRDb5VhLAbvHBo5JV8meeVvFKWjGhsqdsj+1evGAl5NoNK+28DCRyG49HP3FdO8+r1we9qtzsZDNpP+wdC7lggRdcc/WnpEiL5yqD+LbOWO8K2Xd+nYdAHuD/NomZtfBMZCqGR/OTJ+2me4WCo6wIAAsF8vjlRPfeHSZEDwmuUMVayykNouh+6qu7HQ7vsF/tqoGk/0JmecMJXwf5GSQtGb5yFkWPY7by9Gvg++K/IW3fviQCxUMorgzdEWbKvxmCyINBe34j6y1kBFU9HNqHq7dYsj9ge7itYH/OASrk31F+K7ZKyRP7qullotb112yr8V1ueBbq5D9t5YSc8XW0thXP0xr75sw4VcuAtm2WKOR4kADnE1zrW6v4nZyh2kqAY7WOGJe2yviVNKbeze1VnMszKlPi3MofLFBhLGKN5XYAg9VamXhlzhJ3IS4TNgKNDrFDeAO03VqzN9tU1OGPfd9B49OH54RseiTGH/9QpQopB66GCFbayhBPOUrmVM/r1zQU9sR32I4Vyh4738kNnTCDYfDdLgWTv3RqDSWuw236kczDmsrM6dVvTNNvxPS/XRaznoqmaoI4yZ1zO/kRz/XoTAXi8Tdf8rgCkjaWRtgAB/2dvl++6bwrvl8wtv3L9ImGBby9Re/DC3Ax+hQNon5r5N8G8pcMAb8qTFSV68Oh7q65hjkIzC7Q1QmJ34SRzGa9EO90eC1zehAu2qA9XNxxl1gUdfaPL9cxRy1Kl+gZVYkMgxZxW4EC5fvgGzlDPM79VWt+tHiXm095i3D8Em5jLuFVq7OK2JcWc2CeAP9LLJMQ2z4pPV9Z1zA8aTA7ANZuGiH6xUi5RNFujWeRjm0EwH0Z2QD/JGTEUSiVl7un8UZAuxJPtyy5hF8Cdx3muzhkFz8n1jcxl/CGVIbWlbVnH3OZ3mX4o7BBDgxWFr3Ovj3CuMdP9XzM7JczN5SfJ6yoVqOa0Vpu/KNSE2VpTEzt5JiPQbDK1X8qSy/gFZDeEM53B9KtU6zqU6Vwpf7UwUZuZywQ6jNuWNHNddLTR6rQQ1+jQB1jzqjI7EoBBXW9a/rvFa4E9MmHFqxBwUtfLmA2BK8yOmjrkCm5Lghwh5GZmBYr014mLQnFUYMXCswsggWnZkSbnFJB/nTltQO+YfbF0KeZcti7gSB7CbwhoctmDXG/VDVgG5M68bLr/+w+Y0oV6Zzd//47PdKo/yfA8aHBL5mChSAOmaDzuzi1kijnbMpj0B8Px77839xGgKqxm2epOzGVGPaqTXshKMWfxAB1rf3qvCXFo39Oht7ITqDMUgBDYGJCbuGjxhgKEaBqOWHht+6M/Ux7iYRjFmAN0/JOqaduLmuwkc1qIOCDAscrmcGTfVFscB7mwjXdizh4jgKrP/0owJ6psVUD7SBmTcwR4NWNygIvSHrRtQNTIuDpErZgRZMqZWhrzJfiWzRsFwp4OYszRMyYxthPMyTn6fDiKTXk7bZ2DBv2ddmEuY1HzOX3+R4w5J7Ag7f5H20SXihK2cvkBQZgqMfRpNJ1VM/aDECfVHrA9HYoJ5exaHGTuIMYcbMbPSDDn6RzAw8RqadGkTpz+IDsxR4crNJ5/N9pGo2iql5dta1zBEJJo0599NFgby95MfAu/kmu/cwaETTFjtxBsLplju2Eo/ZT6s0OWFYozxycKf+PMyUMCUCO9zNybpZV2Ys77JUDj2ZaxXEkv0g0DYsJReTV5XznkO2D3CWyyZnQ4KCRSJv49AvlLtrhDgvzLU7D1lWj1nXDOGCeZI4lT4syNylQgrmY51dquzNlnwlJhMuYgxxbazRQOZW6nx/4AuBPEdZhlYJ0usXWvSk0f7XIZmfq8cv2ZU5O6/XXvLQto9BtjDnUTR+PMFQRA1mTWNarEdmMuQ39S8OwV5sxx3HN205geK8j2K9zC/j8gIMWSIn53ZuUy7NUWgH8u1dKo2yetNSlr8TeOM6ckUz0x5twSWP8ub+/6vczdFgq3+VLpusZzTC2tWILDwKeiZP4r+TXIxd7+oSpQKMwo8iSqMBb23mF8ro1iVar9lszlk8MxxhyNhMlgnW6wOzv61hRzL1fW/LsKdTMQ4aNQ5109dyhxQkD5RfL6DwLk52WorFt2F8x5LD5Y6/a9uBIGqc1tYsxR6uHandBFazc9l7GpfEkwF1PCZkQtHuocwdjJ9TLIL+I8D4HlqqKLpSNwKInPMxUe/Uknaw2JO0Yx5q6S58SY69CLrc3Oy9R17MScn/StCeYydpWavPJeuzPsBrFNB8+iiVqf/uiLxZN2iwCyqHx2qwSCRUvPa4CkJckcCeYg3MIct+FVGX7tDXruWS2mmWMiCmybHfgoaFSUvLyo8pzFmvN7mhJ1j4vba3QY1RaPQb0FttbOaSaY4yobR+v+zFnG+hhiAdbls4ffWycRINgDCfA51tGYRIDPa3eZLFEW/6Ajmqx/f+8bmNswC3me3Yk5jcaty3fQrzLn0OO4eHA9PAtKX+zp7JnZOAgkGIv/LrIAh3PLQT2EsLJIYgYaq+3EXBdtsHPiblmmTDDlQPmF+1XmWKqW9A9u6Fxq5m5e+tBzp5Mb1HstH+/cgKQ6p4K53PVGhD7QTszRj4KV/mMGrUp2zc9BsCk/x/CkHIO5lN0K6EPrWiZQaJdbenavwnGLpVnuDX4ZuUnkBLgTc2ZtQzrDpoZ9B+bqPQ5Iy9zEmj73RzoGc1QJxN8aqN3QTveYqVDPHgsC/C5VEoshWlcAt24RHYtyd2JO5uG6sJXtHrlLDOHR4QDLy6uvMseyYDg8tJ2TQwyEeNp+pLPnUgCKdwuHOvrnSRMvou1aXUYn5wSwG3P0MxC6q1LVbnI7MMe0JajF7OQqcxdsiufgUYTIREnc04l0NEImiOIy36b8Pu8+KLbpCfxK/MVybjsy5+ZpWLsqVbtkh1yJ32EbSzzE/niFOb8gpJKDB4F4y3HJGq9Rj2W50Fn81jJ9jhfj5tPYh0sJ3YxXQGBX5uQ7iY63tCjsKq/m52Qtx9PbCJW4lUwz5xQIgNLhYwixCVFyGloes1mt1Du26nxMIdVp9+JgvI5TNAsE7sxcRmsh6gva8d9GY3VixibmRFFkZTmWXmbT5r1E3SzLCV+yM0RR1jQ3RwcMQMPDr4myS4CMk7dhU0tCI9mnAoOqvmeq5LbBqLOcBTm2b2GO63Wnu/lWCqdB+0W2+7yYRHbNDgHCWTGpSvgnf47znNoutgo1iWMzlcNkwTGrAquqOQZ10CIKpMZmeoSSBI9q3N/Jh5THdLimZiTMCoT6cm8zRh3ElfCCbWJzMdAVKmXao8Zueo7d4vyM2nlEWnV2AU/tIgHwYz81awj42hxZReExmhUbEP0m5Vton4NoUe+KZyV2qPHWHVTeA6oElHS5WWAIvZTeYlKAX3IhqmyemZNw8/a2qWAIUaRqyZnqrcxRY1k16FOiMrm91ZGCoIAHfiYVQ6QAOSLpYzUd+cWrXdlYxvrgKEUwxSuJXynU616l99lw7rNSYnNHc9BU2JZnLP/PYVj15IwZlcuL6gjAK3qKuRrPJUIuN9eY9RB2AYh49jIYMVeSSs/Mta+lOJSsYkTV9ppNov7Lx07LwkZoHieZHlhWe1VhrCwP1+qWldzUxTatjpBVeL58VRlcMEvp5CxrvrrfadOrJp0bvY+VvI/oq61mjV5AycKuyuo5ZW95E/Y5jqeLi/P1a+xysbPaF+bR1i9Sn6Wttmc1RFhznuZ7F7l2e+Qt3sVHPZumpT5tvY/sUBOXa+cuvMW6WTl20uwaS2w2XPGzvtGCMiYF9r3AN3rcE074SPwPO/ACzrlc4fQAAAAASUVORK5CYII=;" vertex="1" parent="1">
          <mxGeometry x="563.75" y="392.00000000000006" width="133" height="68.41" as="geometry" />
        </mxCell>
        <mxCell id="COHNruM6YLDFT75V-Skk-22" value="" style="shape=image;verticalLabelPosition=bottom;labelBackgroundColor=#ffffff;verticalAlign=top;aspect=fixed;imageAspect=0;image=data:image/jpeg,/9j/4AAQSkZJRgABAQAAAQABAAD/2wCEAAkGBxMSERUSEBIWEBUVFhAYFhUSFhMYEBUXFRYXFxcWFhYYHSggGBonGxUVITEhJSkrLy4uFx8zODMsNygtLisBCgoKDg0OGxAQGy0mICUtKy0vLS8tLS0tLy0tLSstLS0tLy0tLSstLS0tLS0tLS0tLS0tLS0tLS0tLS0tLS0tLf/AABEIAKMBNgMBEQACEQEDEQH/xAAcAAEAAgIDAQAAAAAAAAAAAAAABQcDBgECBAj/xABLEAABAwICBQcHCAcGBwEAAAABAAIDBBESIQUGBzFREyJBYXF0sxQyNDWBkbEjQlRyk6HB0xYzUoKSstEXJFNig6IlQ0RzwuHwFf/EABoBAQACAwEAAAAAAAAAAAAAAAACAwEEBQb/xAA1EQEAAgECAwUHBAEEAwEAAAAAAQIDBBESITEFMjNBcRMUUWGhscEiUoHRQhUjNJFy4fBi/9oADAMBAAIRAxEAPwC8UBAQEBAQEBAQEBAQaHrvtHjo3mCnZ5TP0i/yUf1iMy7/ACj3hRm2zf0uhtljityhXk+0LSzjcVDIh+yyOIgfxNcfvUPaQ6tezsERzr9ZYv0+0t9MH2UH5ae0Z/0/T/t+s/299LrRpmRoIrmC/QYoL+GoTniELaLT1nnX6z/bN+kGmvpzPsoPy1H3mEfddN+36z/bj9IdNfTWfZQflrPvMHumm/b9Z/tx+kemvprPsoPy094hn3TTft+s/wBuP0k019NZ9lB+WnvEHumm/b9Z/tx+kumfprPsoPy094g9z0/7frP9uDrRpn6az7KD8tPeIPc9P+36z/bj9KNM/TW/ZQflrPt4Z9z0/wC36z/blus+mfprR18lBbw1j3iGPc9P+36z/bmTWbTI31rPsoPy0jUQxGl00/4/Wf7ed+uOmB/1rfsoPy1L20LI0Onn/H6z/bzza+aWaC41gy4RQX8NSjJvOyU9nYIjfh+s/wBrx1Zqny0VNLIcT5IKd73WAu58bXONhkMydysrO8Q89mrFclqx0iZ+6SWVQgICAgICAgICAgICAgICAgICAgICDXNoOnjRUMszMpDZkf135A+wXd+6sS2dJh9rlis9PN8/U7SBdxJc7nOJzcSc8z0rXtzl6msbQ7ErDMy5ibc9iSVjeU7Q+Y3s/FUW6qsnelJwVHQ7Mcen/wBqEwotX4PcyEOF2m4ThVTO3VlptGSSOwxsLz1bh1k9CRS0ztDFstaxvaXfSuhJKdwbKBzhcFubTxF+IWb0tSdpRxZ65I3qjzAoruJO6ptprvZVxscMi17hu4tv96uw2pzizV1XtdonHLDrJRUwlDqUtwFubWnJrgeviLe5QyzXf9DOnvlmu2TqhZY1CJbMS8zhcdnw4qTM8pR9Q1ThdSURpIfJu7PxVuPrDYmf0vobU31dR91pPCYtmvdh5HUeNf1n7phSUiAgICAgICAgICAgICAgICAgICAgIK526+r4u9R+FMo28nS7M8WfT8wqMla70Muqyi9LG2FlBdEbQlqHzG//AHSq7dWtk70vY1QVvRTyFpu02KQjaInq2XV/Txhfc5A2Dh81w/Aq/HfaWlqNPxw2bScjq0cnDGDHcHlX8eLVdfe/KGjjiMH6rTz+BS6nRj9a5zzwbzWrEaevmW1tv8YS0GhYGCzYm26xdTjFSPJr2z5JneZd3aJgO+Fh/dCz7OnwY9tk+MvBV6p0r/8Al4DxYSFCcFJ8ltdXlr5oGbU6WnlE9I5s2G94pvnAixGIfiq/YzWd6tqNbXJXgycvnDTdZoIAQYmPp5CXcpTyD9Xwcw9LT1Ku23ly+Tf01r/5TEx5T8WpaWb8m7s/EKWPvQ34n9L6B1N9XUfdaTwmLar3YeU1HjX9Z+6YUlIgICAgICAgICAgICAgICAgICAgICCuduvoEPeo/CmULeTpdmeLPp+YVCSqXfmWSBnT7liUscebOorUnQ+YPb8VXbq1snelKGhlETZzG4ROJAktzcss+Av0nIrE1nbfyUe0rNuDfn8GMyBou4ho4uNgos7b9Gz6t6IEjRNM0lhzZGbtxjoc/pw8B0qyvLq0dRnms8FOvnP9NrZWyNthIAGQaAAwDhZS9pfdocFZ6vfT6ZacpBh6xm3+oVtc8f5KrYJ8klFK1wu0hw6lfFonnCmYmOrBWaQjiHPdbqGbvcFi1or1SpjtfpCIfrS3FhbE436SQPuzVUZ4m20Q2I0k7bzLG3W5uKxglPSeTAebDpwjNJzbeUpe5TtvFo/nk4rDQ6SYYsY5QC4uCyoYeIa4A9o3LO9MkbMVjPpp4tuX/cSqDXTQ76QyQyEOIaC1zdzmk5G3zTluVVazW8RLu6fNXLTihdupvq6j7rSeExbNe7Dzmo8a/rP3TCkpEBAQEBAQEBAQEBAQEBAQEBAQEBAQVzt19Ah71H4UyhbydLsvxZ9PzCoWi5sqXeiN52eoBQXxycoykaKeNoZyuItvzmstyhbfMNvkDbioT1a+SLTM8PX6LkpNP0s1KXxOZ5Oxlnh2+NrRmx7D5ptlmtib7xy6PN30+WmXa0TxTPL5+iu9U9X2VtQ+rcxzKVjzyMTyXYyNwJPzBvt7OhUxDr6rUThpGKJ/Xtzn/wC81jvamzjwxOYsbJbsTmKOzO7UNb9bTSuMNKfl7c5/REDuy3Of1HILEbxPJv6XSe1jiv3fu8erO0VzZWivjZI2xvM0EPGVwSzME3Fsrb1dXJtPOFmo7Oia/wC1O3ybBDpymq5TJTvzOZjfzZQbWJwno7EiYm+8Nb2OTFXhvH8+TM6R8TuUiOF1iL2B378ip2iY5wxtW0cNujWdNSvlkMshu/LnNGEi261txWraZm28tzFWta8NejW9ZJnyMkfK4yOLQC52bjawH3K2kzNo3XYoisbRGy8tTfV1H3Wk8Ji2692HnNR41/WfumFJSICAgICAgICAgICAgICAgICAgICAgrnbr6BD3qPwplC3k6XZniz6fmFTwMsL8fgteXosddo3ZmhRTmWdjRwWJVWmWF+ZujMJDV3RD6qobAwuaH/rS0m3JjM4rbxwv0lZrG87KtRmjFjm8+XT1XZT0jImNjjbgYwANaOgD8Vbs81a82mbW6yOYo7G7G5ijMM7oTWrS4pKd0uReebE09LzuPYN57FGWzpsM5snD5efo1KHRFPU6LdK1w5duKSWV55/KjzmvP7JG5Y2b05cmLU8M93pEfL5NCCOo708xje2RmTmODgezo9u5YmN+SNqxaJrPmtVlVjY17Ddr2hwB3WPR8QqYy3ry3cXh2naesI+sZi6LLM34l1LbNX1khIhkNugfEK3FP6obNJ3ldmpvq6j7rSeExb1e7Dzuo8a/rP3TCkpEBAQEBAQEBAQEBAQEBAQEBAQEBAQVzt19Ah71F4UyhbydLsvxZ9PzCqYnXHYteXpKzvDICsMyysN1FXZw4Iwt7Z1oDyem5V4tLPZx4tZ8xv4ntV9K7Q8/wBoaj2mThjpX7+baHMUtmluxOYo7M7sTmKOyW6ptp+kOUqxCPNp22P132LvcMI9qrt1d7s7Hw4uOf8AL7Q1Jsrg1zA4hr7Ymg812HdcLDemsTMTPkxrDLghBvWo1bykDoD50Ru36jv6FU5K+bmaynDeLfH7peaNUwoiWsa4OtTvbxFz2Aj8Vs4O/DZwxvO64dTfV1H3Wk8Ji6Fe7Dg6jxr+s/dMKSkQEBAQEBAQEBAQEBAQEBAQEBAQEBBXO3X0CHvUXhTKF/J0uy/Fn0/MKjifZ3aqJjk79bbWeh1+gXO4DiTkB71Ff6rsotRKV1JDFNGC9jBeRpLZMRF3HEM9/QVsezjbm8vftDLGW16zymenk0ZmqrDpUULHmWNmF8jnWxBgAc5hLculjb/5+pU8H6+F1J1c+6+2mNpnlH9/f/pchZwyHUtnZ5zdjcxRmGd2JzFiYS3YZCGguduaCT2NFz8FHZKN55QrfVzQlPpOkme9w8pkmkkxj9ZDi/Vhw+cwjo3e1VVjijd2NRnyaXLWIj9MREfKfj/Kv6iAse5jiCWOc0lpu0lpsSDwVbq1tvETHmwkIk4IQSWrdfyFTG/5pOB/DC7L+ixaN4U6jHx45j+VlVcNitW0bOPWzRdbn4o5T0AAD2ELZwcph0MMbQufU31dR91pPCYt+vdh57UeNf1n7phSUiAgICAgICAgICAgICAgICAgICAgIK526+gQ96i8KZQv5Ol2X4s+n5hTr1VDtWSNC7EWuGRbY3G8EbiOu6rtyX8e9G7aG1+q4bCUiqZwks2Udj2jP2j2rNcto683Ozdn4cnd/TPy6f8ATZtl9IXiorpM31ErgD0hrCb/AO5zh+6Fbhjrb4tHtK8RwYa9Kx9//Te1c5bghBjcxR2Z3QGvExj0fVOGR5J7R2v5v4qF+VZbeirxaikT8VKaPrJKd4kgeY3gEXG4g5YXDc4dRWtEzHR6TJSuSvDeN4eVw+8k+83WE3QhGXUhB0c1Gd1k6G0py1CHk3kYOSdxxDcfaM1VeHHy4uDNw+U82q6xt+Qk7B8Qp4u9DbourU31dR91pPCYt+vdh53UeNf1n7phSUiAgICAgICAgICAgICAgICAgICAgIK526+gQ96i8KZQv5Ol2X4s+n5hTr1VDtWe7RLrXB6cx7FDIUjaEhJkDYXPQOJ6B71UshfOrujhT0sMI+YxoPW7e4+8lb1I2iIeV1GX2mW1/jKRUlIgINX2l5aMqD1R+I1V5e5Le7O/5Nf5+yv9OaiTwsE0F6iIta4gC0rLgE3HSN+5U2xzHOHVw9oUvPDflP0ajZVOg6lqDqQjLqWoNm1VpyIXvJNnuFm9HNyxdqqyW57NLU2ibxHwYNZW/wB3l+qPiFLD3oYp1XLqb6uo+60nhMXQr3Yef1HjX9Z+6YUlIgICAgICAgICAgICAgICAgICAgICCuduvoEPeovCmUL+Tpdl+LPp+YU8Rc2VTtTG87M7HYSCOhR6rJhterFJy9ZTstcGRrj9VnPPwCrpG9ohr6i/Bhtb5ffkvVbzy4gICDX9f6cyaNqWgX+Tc631Od+Chkj9MtvQW4dRSfmr7QWv08LRHOBURWt0CVrbWyO45cVRXLMdXWz9nY7zxU5T9GozAYnYfNLnEX32JJAPsVboRvtG7EWoy6lqwy4ZEXENG8kD3puxM7Ru3SOzGhjdzQB7lr9ebmzvM7yiNZx/dpfqj+YK3D34W4+q4tTfV1H3Wk8Ji6Fe7Dgajxr+s/dMKSkQEBAQEBAQEBAQEBAQEBAQEBAQEBBXO3X0CHvUfhTKFvJ0uy/Fn0/MKmoacySNYN73NaPaVT8nd3itZtKy6rUWkdk0PjOQux5tfjZ1xvVvBDjV7QzR12n+HXZxQMZpKaNjjI2mYQ1zrYiXkX3ZZYSFXSv+4s1uW1tNWZjbin7LWWw4ogICDBXQCSJ8Z3PY9p/eBH4rExvCVLcNon4PnhjCBhO9t2ntabH7wtF6+Z3neAhZHUhB1LUZe/QsPPLz83d2lV3nlsoz25bJZ8qhs1tkfpx96WbqaPdiCnjj9cJ06rl1N9XUfdaTwmLoV7sOBqPGv6z90wpKRAQEBAQEBAQEBAQEBAQEBAQEBAQEFc7dfQIe9R+FMoW8nS7M8WfT8wrDQukWwTRzFnKcmbhpNgTa29Uxynd2sm2XHNN9t26wbQ4d7qeVv1XRuF/eFZ7T5Ofbsy/laPq52VznyipqHfOcxp7HlzvuuEx+csdpxtSlIW+rXEEBAQEFVO1PFRXVkQm5F7HiRgwhzHMlzvvBFnYgtb2e9ph3ffZx4cdtt4mNp9Y/9InWLU+ejZykjmSMuBiZiuCd12kZe9QtjmvNsafW4808MbxLXiFBtupCyylKYYWAdO89pVU85at54rbus1QBvICzEFaTPSETpfSA5J7WgnELXOXSD+Ctx0/VC72U15yvrU31dR91pPCYtuvdh5jUeNf1n7phSUiAgICAgICAgICAgICAgICAgICAgIK526+gQ96j8KZQt5Ol2Z4s+n5hTwVTrw5RlYuzJn92ld+1Lb+FoCtxxycntLLPtKx8lj0OmmABkhIIAGL5p4ZqTn8E2jeExHIHC7SCOIWVe2zsgICCv9oM0tJVQVkFg5zHxOxC7D85oI/iWvlma2i0OtoK1zY7Yr/Hdr9frzUTxPhmiic14IJGIEdY35qE5ZmNpbdNBjpaLVmeTVSLKtvMRnAP7SzsnwTMOsta93Th7P6pFYZrhrDzqSx49IHmnqCnTqqvPN9G6m+rqPutJ4TFfXuw8nqPGv6z90wpKRAQEBAQEBAQEBAQEBAQEBAQEBAQEFc7dfQIe9R+FMoW8nS7M8WfT8wp5VOs5KJy2zVTWuKkgMT43vcZHuu3DazrWGfYp1vEQ52q0d82TiiY6bJZ2vcJz5GX/ak5I3Zx9nZOGOcO0G0CNhuyOVvYW29yx7SGZ7NvPWYS1NtZjGUkEh624fvCz7WFU9k38rQkYtp9O7zYpD/Df3KM54jyQnsvJH+UO/8AaTD/AIEv+1PeI+DH+l3/AHQhdbNdKaqp3ROikY64cxxw5OG6/Uo3yReNtmzpdDlxZItEx82gSVf7I96q4XWinxYHOJ3m6ksiIhwjIg4cbZoTOzw1XmO7FZXqpl9Iam+rqPutJ4TFdXuw8pqPGv6z90wpKRAQEBAQEBAQEBAQEBAQEBAQEBAQEFc7dfQIe9R+FMoW8nS7M8WfT8wp4qp1mw0GpNfPE2WKnD2PALXcrGLg9NibhZ4ZVTq8NZ4bW5x8mZ2z3SYF/JQeyWK/szWeGUffdP8Au+koSSndGTHIx0b2khzHizmnrCqnq6OKYmkTHR69FaFqKpxZTROmLbYrWDG33YnOIA7N6zETPRjLmx4o3yTslnbP9JfRgeyWK/xUuCzW/wBQ0v7vpLXqulfC90czHRPZ5zXZOHX2dYUW1W1bV4qzvCV0HoTSFXHylNFysOJzcRkja67d+TjeyRj35xDUvq8OO+15+jwPpnCQxEfKB5jIuDzw7CRfdvyusfJuxaOHi8tt/wCErpPVOspozLUQhjBYFwkY7M7sgbrM0mOcqcWswZbcNLbz6ShlFsvXovRc9S8x00TpnAAnDYNaDuLnEgDp9yzETPRXly48UcWSdoTP6A6S+jD7WP8Aqpezs1v9R0v7vpKF07oeelc2OpYI3OBcAHNdcA23tWOGY6rsefHmjfHO8IiqHMd2LNeqcxyfR2pvq6j7rSeExX17sPJajxr+s/dMKSkQEBAQEBAQEBAQEBAQEBAQEBAQEBBXO3X0CHvUfhTKFvJ0uy/Fn0/MKdduVTrPoTUmXBoqnda+GC9uNgSrq9HA1Eb57R80PqVtENfUmnNMIbRvfiEuPzXNFrYB+1x6FGt952bGq0HsMfHxb8/ht+WubYoGtrIXgWL4XYuvA/mk9fOKry96HR7ItM4bR8J+7cNmELWaNjc0ZuMrncScRHwACsx91ze0pmdTMT8nk1a2gmrq/JjTcmPlefyuL9WbebgG/tWK5N522Wans2MOH2nFv05bfH+WsbdYQJaZ4Fi5sgceIaQRfjvKxk6rOzLTNbV8mybFfVv+vP8AEKWPutXtDxv4VTLUYdKSg5g10ns+XKp8/wCXbx32wbf/AJ/C5dqfq6T60f8AMrsvdcbsv/kR/KlFrvTrh2QQtFAXgc5802I9JwkNaPYAFfh7rzna9pnPt8Ih66rTmk2veGaMa9oc8Nd5SwFzQTZ1rZXGdlmbX+H1V10+kmI3y8//ABlV2vGmpauoaain8kfE0tMZcScze5uB9yqtaZ6w7OjwUxUngtxRPm1qsHybuz8VivVtW6PovU31dR91pPCYtivdh5LUeNf1n7phSUiAgICAgICAgICAgICAgICAgICAgIK526+gQ96j8KZQt5Ol2Z4s+n5hTr1U676G1FIGjKYutbkRe+62d79Sur0ee1PjW9UgIYIozPBAxxDCRyDGB7xvs0i179qz0Q3vaeG0/wDajtadYHV9QZ3NMbQMDIz5zGgm+L/MTe/CwHQta08U7vU6PTxgxRWPPnMra2aC+jIR/wB3+dyvx91wO0v+Tb+Ps9Oi9UqOCbloWYZOfnjcfO87IlIpWJ3hXl1mbJTgtPJoe3bzqXsm/wDFQy+Td7K/ybBsW9W/68/xCli7rW7S8b+IVHWj/iknfn+OqfP+XZrH+xH/AI/heG0mkkloHshjdK4ujs1gu7fmVfkjeridn5K488WtO0Khn1eq2NL300jGtBLnEZADeStfhl6Suqw2naLRumNR9P1dJi5GnfVQPddzWg814ABLXbgbWuDwClS016Q1tdp8Obbjtw2j7N+0PrlLNOyJ1BPCHmxe+2FuW8q2uSZnbZx82ipjpNoyRPyQe2emZhp5bDHjewu6S3Dex9qjlbPZFp3tXy23VVW/q3dn4quvWHbt0fROpvq6j7rSeExbFe7DyOo8a/rP3TCkpEBAQEBAQEBAQEBAQEBAQEBAQEBAQVzt19Ah71H4UyhbydLsvxZ9PzCoHtVLtWhZOhNo1PBQx0ropS5kRYSAMJNiPdmrIvy2cnJor2yTeJ83h1E2g+RxGnqGulYD8kWWxMBvdhv0DK3uWK22jmnqNF7W0TWdp80RrXpCnqKgz0zHRB4Jka8ADGPnNtxG/rHWq7TEzvDqaPHkx4uDJO+3T0bFqttGp6WjZTvilc5oeC5oGE4nEi3vU65IiNnO1ehvlzTeJjZquqmsnktb5RM6WSP5bmBxJ555uRNsgoVttO7Z1Gm48XBXbfk920XW2LSJhMTHs5PlL47Z4rWtbsWb24kNFpbYN+LzSWoWv0FBSchLHI93KSPuwDDZxFlml4rGyrV6G+bJxVmGk1FYHVjqgA4XVLpgPnYTJjt22UN+e7oRSYxRT5bfTZbP9r1L/gze5qu9rDi/6Xl+MPBp3ahTT000LYpWmSN7ASBYFwtc9SxbJExsu0/Z2THlreZjlLxaia6Q0NM6GRj3kyveCy2Gzg0D+VRpeKxs2tdob6jJF6zHSIbF/atTf4M3ub/VT9rDS/0jL8YaJrjrQ+vla4t5ONl8DL3Oe9zutV2txOro9JGnrtvvM9Wr113YYmAue9zQGjebmwHtJASkc92xktERzfSug6IwU0EJNzFDDGSNxLGBpP3LZh5DLfjva3xmZe5FYgICAgICAgICAgICAgICAgICAgICCuNu3q+HvUfhTKF/J0uy/Fn0/MKbNczr9yq4Zd2eboatvWs8KuaSeVt604WOCXaSvBFswOnrUeCV/FO2zF5S3rTgkPKW9acEh5S3rTgkPKWpwSbnlLVjgk3PKWpwSbnlLU4JN2aCva3I3I+CzwSlFtmX/wDSj6/cnBLPHDLTSyTOwU0L5nncGtLj7gsxj+KF81aRvPL1Wrs42eugeKyuF5hnHHcER5ec62RdwAyHwurXZwtbrvafop085WYpOWICAgICAgICAgICAgICAgICAgICAgIOCEDCOCBhHBAwjggYRwQMI4IGEcEDCOCBhHBAwjggYRwQMI4IGEcEDCOCAAg5QEBAQEBAQEBAQEBAQf/Z;" vertex="1" parent="1">
          <mxGeometry x="563.75" y="195.79000000000002" width="118.5" height="62.3" as="geometry" />
        </mxCell>
        <mxCell id="COHNruM6YLDFT75V-Skk-23" value="" style="shape=image;verticalLabelPosition=bottom;labelBackgroundColor=#ffffff;verticalAlign=top;aspect=fixed;imageAspect=0;image=data:image/jpeg,/9j/4AAQSkZJRgABAQAAAQABAAD/2wCEAAkGBxMTEhMSEhIWFRUXGSEbGBgXGB0fHhYcGBoYGB4aHRsfICggHRslGxcfITEiJykrLi4uGCAzODMtNygtLisBCgoKDg0OGxAQGy0mICYtLS8vLS0tLi0tLS0tLS0tLS8tLS0tLS0tLS0tLS0tLS0vNS0tLy0tLS0tLS0tLS0tLf/AABEIAM0AyAMBEQACEQEDEQH/xAAcAAACAwEBAQEAAAAAAAAAAAAABgQFBwMCAQj/xABEEAACAQMABwYCBwQJBAMBAAABAgMABBEFBhIhMUFRBxMiYXGBkaEUMkJSkrHBIzNighVDU3KistHh8CRzwvFjs9I0/8QAGwEBAAMBAQEBAAAAAAAAAAAAAAECBAMFBgf/xAA5EQACAQIEAwUGBAYCAwAAAAAAAQIDEQQSITEFQVETImFxsTKBkaHB0RRC4fAGIzNSYvEVgiVykv/aAAwDAQACEQMRAD8A3GgCgCgCgCgCgCgI+kbwQxPKwJVFLNsjJwN5IHPA30LQg5yUVzPmj7+OeNZYXDo3BlP/ADB8qEzhKEsslZkmhQKA+McbzuoBb05rzZ2wwZRLJwWOLxsx5DduHuam2l2a6WCq1OVl1ehH7PdJTXSXF1Muxty7KJ9xYwFx67ROT1zR20sWxtOFJxpx5L1G2oMQUAUAUAUAUAUAUAUAUAUBS6E1ss7o7ME6s33TlW9gwBI9Klpo0VcLVpaziXVQZwoAoAoAoAoBe1+WT6BO8TlHjXbBHPZ+sCOBBXIwetTHc1YPL20VJaPQyfs8049lsTFibeR9iZTwXhsyDpjO/qKq6l6rpvpdG7GTVbESw7XeUVKL69V9jUdb9c47PZiRDPcSfu4k554EkZwPmfnUuyWaTsjHhsHKtq9IrmVNtBpW58VxdLaKf6qBQWHq5zg+hNePiOM04u1KN/F7GlrDU9IxzeLOsupdvJ+/e4n/AO7M5+QIFefLjGJezS8l9wsTKPspLyRC0vb2ujo8Wluv0qTwwqo2nLH7WTk7K8SaUZ1sXP8AnTeRay5L9s6QlOs+++6t+hC0BaabhhSNGto1UbkfBJySTtEA7yTk769efGMKnZXfuJrfhJycndsvodZ7+Ef9XYFwOL2rBv8AAfF8660+I4apopW89DNLCUpf0528H9zvb9pGjmOGmaJuayRuCPXcR862pXV0c5cPrrZX8mdrntC0agybpW8lDMT8BU5WRHAYhu2Um6p6e+mxvOsZSLbKxbX1nC4BYjgPFkY8qhqxzxFDsZKDevMu6gzhQBQBQBQBQBQGM6d0VBYXTw3UR+iTMXgnj3SW7cSAw34B5eh61yqwlftKe/Ndfjp+9z36FWdemnB95aNPZlnoLXma3LCUS3dmuALrumVkB+9kePHX86QrRlpLR9P9Xt5HKvgIz1jaMv7b+hpOjdIRTxiWGRZEPBlPy8j5GutjyJ05QeWSsyVQoFAFARNF6RjuI1libaU/EEHBBHIg7sUL1KcqcssjhrJj6Jc54dy+fwNUrctQ/qx816mLaA0Zt2Dqecbv8N4/KvLxNbLiU/FIjGVv/KZ4/lt8t/VjJqDo79kl7KxeabdtneY4o/Bsr0Y4A9KycUxEp1HSW0fm39EejxGtaSox0XP1LvtC0lLbWgnhfYdJF8wwOQVI5j/SsPDaMK1fJNXTTJwkIzqZZLkVejdeJbtVhtoAl0RmQyHCRLu8YH1mznIWtNXhkMPJzqy7nK278PDzOs8LGm80n3fDdlvovRYgczOxmuHGGmk446Io3InkKx168qqyRVorkvq+bIffWXZdF9+ZcR3YO5sH0BrJkkjk6TWx7kuSN+D8DU5YsrGmnzKnTN7bBC9ykRA5yBflnJPtXahGu5ZaV7+B2hRne0W/cZlrDM1zlLGw2IjxdYcF/Q43L+dfQ4VKj3sTVvLpfRfdno0o5NZyu/FjloDXNrOCK3bRtwscagbS4bJ4lsYHEknjzrasVQm9Jr4nnVsA6s3POrsa9F69WE+5bhUb7kvgI8vFu+BNdrczBUwVeG8fhqMMUqsMqwYdQcj5VBmaa3K/T2noLSNpJ5AuBuXPic9FHEk1KVzpRoTqyyxRYxNkAkYJHDpUHN7nqhAUAUBW6waFivIGgmGVbgeankwPIipTsdaNaVKalEyxNMXuhmNpPGs8LH9k7HZUg7sZIIx1U8PSs1TDaudN2vurXT8baa+p7fZ0cYs6dmviTNEav6QQyX1m0MLOc/REJMbjG/JJ2cniMdeIrnhsXGcFl7y+D9y+l7lK9Wi7Uqqb/wAhu1W14ium7iVTb3S7mifmf4Tz9OPrxrYmpLNF3R5+IwU6XeWseo10MRW6yzFLS5cMVKxOQw4ghSQR71K3OtBZqsV4ozLsa0nKk8lvIcrOnfL5MDgn3H+UVLkpXty0PU4ioThmjvF5WWGv2tX0lzo60bIO64lHBVB3oD+Z9utc6lRUoZn7jNTjHC0vxFXf8q6s8WKrHFPjcFhKj3wK+eqXnOPjI8GhJznKUt36touNQIANH2oPHY2vZnZh/wA8qzcRm/xM7dfofQ4rLKtIqe16Qm1iiUZaSXOB0RWJrTwOF67l0XqaMClncnyRAvtCNLZWt3bErdRRKysvFwFHhPU44fDnX0s4xmnGSumdY1FGpKEtmy71Q1hF7CZDulXdIByOOI8m+W8V8vjMG8PNRW3L9+BWtS7JpLbkXIGOvtWZwKbkW5ttv7br/dOM++M1aPd5J+ZdSsVB0XArbawiRx/WSsWx/MxPyrQ6tVxs5WXRaehojd+07eCLBQ43u6gdAP1JrI4R5Iq8m0UznNeL9lx7DNSqPVFo0pc0Vuk2t2H/AFCRuOpCgj3zXajGtF/ym18Tqqcvy6CtdWejBkrK8fkkoPy3mvVp1uIbWT80dMk+bRC0RYW91e29vbrIwZwXkkOSVTxEAbsDAO816FBV/arNeSOeIn2VKUj9EV0PlAoAoAoAoCDpnRMN1E0M6B0b4g8iDyI61KdjpSqypyzRepkWmtHXujHWL6U62bHCyhA2xngrA/VPy6dBjxGEpSUqkYXl0u1f4aM9+hXpYlXa7y5fYurTUezmgdnkkMzHaFztZOeRA4bPlXn4TiPdebuZdLcl4W3OdXEVYVEopW6EHVztFktZGtrxvpEKNsC4QEkdM/eHz3c69qnONWKktG1ez3KYjh0aiz09H0LntG1lSaCK0tJFka64spzsxA7yemSMY6BqmUlCLlLkZMNT7DNWqqyj82Z/ciU3vdWjFNiLui4+yuMMc8uOKz0aip0e0nzdzphqsKOC7avrmk5W6vkMVjYRWkRxuA3u54nzPlXn1Kk68/RHg4ivWx1bXfkjppZiYWRDvlwoxz2ufoBk+1UopKom+WpTBrLWTltHV+79dBz1fg2I4gPqrEFHsxx8q8nFSzSk3vf6HoUJSm875r6spNZV73SNvFxEdtPIR5ujIP0r2eBxtTnLq0vh/s9Sm8tFvrJL5knUt82NqekYHwyP0r2ya6/mSFxLf6FpdQu6K7B3cgx34/GP8VZMdSVSjfmtTSpdpQ13iPexXgZTNc8vH1qLEqRVPKDlyPCu5F5E9avk5GtRtaPN7vwILSn6xGW6nfjyA4VZwWx3UVtyI87sQSctgcOvlUxpxT0VjorLYohoASnvLkl2PBASETyGOPrW6OIy9ynouvN/voS5WI0+rFs2QNpD1Ukj55rU6uIglLl42T+hWNRPQ9auyvomc3HdLPEw2WYfXjXO8jkP1xxFdqWJjV7r0fQ44vD/AIiGVO375m3aM0hHcRJNCwdHGQR+R6EdK6NWPmalOVOTjJakqhQKAKAKAKA43lqkqNHIodGGGVhkEULRk4vNHcx7WTUwWEhkKyTWLcQrsDDk/aAPiXz/AF48MVTqVIXotKfik7/Y97C41VllekvUt7PWGw+i/R4rdp0bP7JIWwT/AHiAAfPJryYSr0o/z2r73k1p5Wd/kRPD1XVz5reN/oK1xqje2Ki9iVGXeXjU7fdoTnDHngcSOGK9V1adaKjLVO1pLr9CasqGLToVLp8uWvVH3Ui8icSZYd/I5ZgeJHLHXia4Y2nJW07qR5HGaFWLjZdyKsv1JuuE+zB3Q+tKwQDyyCT+nvVMBRdSsrGPhsVGo68vZppyfw0POozn9rBLv+jtuPUHOF+I+BqOIws1KP5jRxGEJyhiY6KcbteOn3Rpein/AGaj2Hnjj8wa+crLvsnDvuJe4WmTa026ndtWJC+534r6Pg9vw3/Z/Q9Fu2GT/wAjxqJLswfRX3TW7FWXngsSrDqpB4+VeszriVeWdbMha/6PW4lsLcnBklIyOKrhdoj0oi2Hm4RnJckWtv2XWS8Lm4z1Eqj8lqr13RllxGs/yr4M6v2fzKD9G0ncL5SYkX9K5So0pbxREeIq/fgvdoUukbLSlsuJIEuolyduDc3qV4/AVwlgqb1i7G6ji6E3vZvqRtHawwTnZDbDjdsPuI8uhNY6mFnT1a95ry21LJ1xXKEHJ2QcrEa4blXoYTCptSly1+33OVSo9kV97crGpdzsqP8Anua9JUqd22rvm3qc4ubskU41ot948eDuPh3H1GaiVGnKOW36eR2VOonc9av6xmykL2cqvCxy9vISvupPA+f51OTTV6nOvh1XVpqz5NGk6L7TLObC4lWU/wBWI2Yk9BsZB+Vc3Bo8mpw6rDXS3W9vUcYX2lBwVyM4PEeRxzqphas7HuhAUAUAUB5kQMCrAEEYIO8EHkR0oSnbVGHaauZLO9u4tHrmCPBeNvEqMQNrZGcgAnHselY8ZgcPiMrq6Pk1ufQ0a0XSg6z1lsXNrcS3saiW8j7hgNqOAbBYc1dm8QHXdXizxLwslBU3dPeW3usrP5l3TjBtxjr4lJ2i6M0dEFezkCTLgGOM7QwPtFvsn869zC1ZTlzyvr18Hz8hhZV5XjVV11/QqtXxLcypLMxYINlSev8At19K9nB0YUIzr2sopv3ny/8AEuIpYeksBh1aVRpytyX6+lxu1Ct1cXE/EtOT/IuR8i2a+W4jOUXGP+PzZsxsUuzpf2Rj+v0GrS+lI7S1MsnCPGxg/XbkB68/LNeXToOvXyw57+C/QthaLqZYL4iJojR+kJnGlQw77azHE24PHvBX+FSDgDnvNfW0aMKMFTgtD16joxj2HLr4jhbrDdYkkgaOVOTgq6eQcY2l9DiuhmeanondfIsmtkLrIVBdQQrEbwDxAPnQ55nax1qCD0rkcCR6UIaT3JMWkHHPPrSxzlQgyr09q9ZXwPfxbEnKVNzD1PP3Bom0WpVK1D2HddBPvdEX2j97ZvLUfbX68Y8xxwPceYrhUw8ZXcdGz0KWLp1tH3ZdD3b3Ucy7cTBl/LyI5Gu1OErRv1bfu2E7wbTKnWjRjzxosfENnHlg/wDPetLXQmhVUJXZAfRWjljAaDSIlxvwIyM+XLFc7SLqriHLRwt7ygTV+dydiJgudxfA3edWszS68EtWMWjdGXsabC3ZhXpHuP4hgn41OS5lqVaLd3G/mfL4G3G3Je3RPLEhBJ8t9dOwtHNLQyRxtOrV7GlBSfOyVkvF/a5eaj6/zrKEnLy2xYKZHALQltylmHFSd2/9MVnlFcjpi8DBxvHSXTqbHXI8IKAh6YvxBBLOwyI0LEddkZxUovSg5zUVzM51B7QGESJf5CkkR3B+qcH6rnkRyPTj1q0o2Z6OKw0J1JKi+8t489VfQVdRtIbd3dbZy8pLA9SGJPybPtWTHxeRPoTxmi+wg1stPiTNParqsn0mCJZMHLwHOHHMrjn5f+qzwrynB05Sa6S6HLh/FGl2VZ+Uvv8AcpE2LuYrHH3NvHjwKACx/iI4nOfQCvU4Rw5+1WlmfN/RdF1K/wAQ8Xlw3Drs9ak9F4Lm/S3iNmjbMLkAbKquN3LO7dWriGJzYaMIaZ3ov8V189PifBYNTli5V6zcnHVt63f6EfU5ZLbat5AVYMWjcA7Lg44Nw5cD1r5/GRjV73ua6H2vEKka7jiaL0tr1RIe2OkLzYfH0a2OXxuEkp+z03c/frWjA0FShm5v0N2CTo0O0ftS9B5ArYD7QBQBQBQBQBQHSC4ZOB9uVCkoRluLen9VFkY3NjiG54tHwjn8scA3n/7qVJo6067gslXWPXmij0ZpAS7SMpjmQ4kjbipH5iu6lc7zhl1WqezJ2xUnO552KuoNuxnli6UYObei5238F19xEnBGf+Y/3rfShFd1a/Xx8l8z5bG4qtK9Wo8nLxin+VLnUnz/ALV5lFq5ogaT0h3bE/R4hliOYG7AP8TfKsOMr556bLY+k4Vhv+L4em1apPV35dF/1XzNMt+z+3gnSa1zH9mWNiWSWNtzKQ2SDzHLIG6sWbqWljpzg41Nej5pjjVTCFAUOvkZbR12Bx7pj8N5+QqY7mnBu1eF+pkmoF6rRPCwDYOSpGdpW54PQ/nWqdCOIo5b2lHVP98jF/EMauExscVC+WaSduq+thhi1es9oSJCgYctphj2zisEqNWKtUlJeOXMn70Z/wDmsRUjljNPzdn80WsZIO8AD+9n5YrLWpQatTu34Qt9TJTnO7z2S/8Aa/0E/RFt3dxdpxxKGHmrZYV9Hw5SdCUGrNrn5WK/xJUVZYWtF3WVr3pq4z6PXwkgZy2+vJ4rFOvGk3ZKKS6fvxMvDdKUppXbk79Thp3SPcxHYBMjEJGMcXbcPhx9qx/hp1J5pteNmm38D2eH0Y16yppOy1ejskXOhrKO0hihLDaPEnjJId7HHE7/AIAV6B9FOTnJtbeiLWoOYUAUAUAUAUAUAUAUAva3aANxi4hOxdxjwt/agfYfru3A+x3cLRlldy9NpJ05ey9108UUGhtLidTldiVNzpk7iN2cdK9CnlqR3SfkeLjY1cFW9mc4v2WpN38GrrX4njS2l5IlJ7l2XquMe+8kfCumWFJXyt+hjzV+IVVBVo0n0knm910l8HcTb/T0twRGuEVt2M4znqx5fCuFXFymrLReB9Dw/wDhvDYSSq1W6kls3svJdfF3ZomrunLDRNr3aSrc3Uhy4h3hm4BdvgFGcdd5ON9YWnJnevRr4qpmayxXU1SMnA2hg43gcjzqh4730PVCAoDnMqsGjbB2lOV6qdx3dKEq61R+ctZ9CT6MuyFyFzmKTk69DyyOBH+1aKc2ndbn0i7HH4dwqK6e68f3sy50ZrtEwAmUo3MgZU+3EfOtfbU5q01byuvQ+SxX8L4ilJyw0lJdHv8APR/Iuk01bP8AVmj+OD8DUwp0r6VJf/R49bhuNj7VD35ftodVtFLiVea7J/iGcj4HPxrbFJO6POnKapOhJbO68Hs/j9CQo2c7yPQ4rhWourK7t71dfRr0KU5ZFaN7+Ds/1Fi20iZLj6VsmRIm7u2T+2nfcMeQ+segC9a8+tKLeWKSS6Kx+icK4e8JhrVH356yb1sun753H/R2ijBtS3D95cMP2j8l593GOSDh5nfXA79p2mkVZcvuxb03pi4uLhbK0bYYjMj/ANmv+uPzAqbWNsadOlHPLUtdG6vWdth3YSSc5Znyc+WTgVF2cJ1as9lp4DCrAgEHIPA1BmPVAfKArodLqQpI2W73uXUnejkHd5g4GDzDA1J0dN391yyqDmFAFAFAIWveiXhkGkLceIfvl5MOG0fbcfjXWlUcHdHfsqeLovD1duXh5eRP0bOk8Syx8G5dDzB8xXrU5qSzI+AxuFq4eo6FXVrnblyae5zudDwHLPFHu3klR8Sas1B6tI508TjIWhTqS8k2VWqtvHd6RijgjUQQHvJGCgbZX6vttY+ZrzsTVi+7Baep9hg8JXwuHlWxU26ktEm28q+/X4G2VhM4UAUBn/amzLGHeBmjX6k8LbMlu3mOaH1HxwavE9Lh6TlZS16PZ/qZzY6TgukEN3dXC7923JtIT1G0CVPqfetMI03vodsVHG4aWfDwjJeVpfJ6/vQvrfUK1wG25HHUMMH3A/Wu6oQPCq/xFjU8top+Tv8ANl3YaFhgGIo1XqeJPqTvrvCMY7I8XFYvEYl3qzb9Phsd7gqgLOwVRxLHA+JrpmtuZIUJTllgrvoikkhlvv2cGY7c/vJ2GNsfdjB3nPXhWKvibrLE+o4XwdYaSr4j2ltHp4v7DVqvq7GlyCq4itYwsQPOSTJeQ9W2cDPmawN6HqYuu3C3OW/ktkSNYLgKrseGST6DJ/SpR3wkdV5GXakyzzzT9wP2sxy8jfVhjByWbrvOAv8ADVnoehiZwpxTl7l1YxakWMUhE0wM0rKzo0m/ZQSNGMLwBOM1DM+JnJaLRfoPNVMQUAUAga/l4JUmT6sjR7Y/ijYMjeuAVqyN+GSnCz5X+Y/mqmAKAKAKA8SxhlKsMgjBHrUkxbi7ox/TDXGjJ3jhfETnaXIBHz5jh8K7U6ko7G2tgcNjkpVY3a8bEW3/AKQ0kwjTbkGd+BsovmxGFHvUzqyftMinhMFge9GKT67v56m36jaqJo+DYB2pH3yP1PID+EcvUnnWeTueRi8U6878uQx1UyhQBQHl0BBBAIO4g8CDyoE7Ga619k0UpMlmwhY7zG2dg+h4r8x6VdT6nrYfiko6VNfHmIc2qelrRjsRTAdYSWB/D+orpGdtmbpVcFiV37PzX3LTUb6ZeyTLLdTIkS+Irja2mOAuSN3A/CrOtNczHicBgqWXLSi2x2tdV7dSGZWmccGmYvjzAPhHsK5SnKW7KxkoK0EorwVi4qpUvbMgRA+WagwVNajRnXaHebFrJ1K493IX8s1eJ7mDjrcR9T9YZYba6tY4wTcAJGwXxd45C42uYCEnHL3qWtTricPGdSM29t/IddT4R302ycxwRx2ykcGZMtIR/OaqzNXfdV93d/YbKgzBQBQCn2hx5t3I4ooceRRgasjdhOYz2s22iOPtKG/EAf1qpias2jrQgKAKAKAV9f8AQv0i3JA8a719Ry9xu+FWizZhKmV2Lzss0/8ASrNVbHew+B/Pd4W9wPipqslZnm8QodlVutnqONVMIUAUAUAUAUBC03d9zbzy80jZh6qpI+dSjpSjnmo9WZP2U38aWt3tNmUyoQufFJtDZUKOZLE+mavLc9vHRfaxfKz9xo0p2QE3Z+3jr0z0FVMEO93n7he0hp4QXccMvgikTwyHh3m19UngN351JqjSzQcluvQ6wa1xqHhnkELqTlGOAw5OhPFWG/dSxV4VyalFX/fMQNadItpGdba0G2oO0x4DcOvJQOfU1ZaHo04qjC8i4gs7mZwygd4q92kgUrDaJjB7vaw0spH2uHnUGbuQVuW76t+PRDjojRqW8SQx/VXmeLE7yx8yagzTm5yzMmVBQKAKAUO0G5C28390L7sR/rVkb8JHQvdWz/0lt/2l/wAoqHuZKvty8yyqDmE0iKpY7QxvOBndzOBv/OhCUr2PiMCqupDKwyrKchh1BoL8j7Qk4Xq5RvTPwqTpSdpoTdQpPo+mZoRuSZCceYAcfDxfGplsd+IxzYdS6M16uZ4AUAUAUAUAUBXax2RmtbiFfrPGyj1KnHzqVudaE1CpGT5Mybsi0FhpL6Rf3ZMcWfvkeJvYHHuavJ8j2+IVc1qS56vyHvSd6IY3lbfjgObMThVHmWIHvUGWEczsj09sHjCTKr5A2gwBGee4+dBms7xIb6u2pGy0CFRwU5IHpk+H2xS5btp73JOj9GwwArDEkYPHZGM+p4mhWU5S9pksmoKhQBQBQEW6vVXcN7dOnrU2OtOk5b7GX68X7TzR2cXiYsNrHN23Ae2fn5VdHqU0oRzM1W1gEaJGOCKFH8oA/SuZ47d22daEBQCbNpU6Mu9l8myuDll/sXPF16dSBx31a1zVKj29PPH218/MdZUxgghlIyrDgwPAiqmOMsyI10cI3pUnWmryQn6qQ7enSw/qoST6lQv/AJ1MtjTj5Ww1urNbrmfPhQBQBQBQBQCf2naZaC1EMP7+5buowOPi3MR7HHqwq0UbsBRU6maW0dWdrHRy20ENqnCJQCfvMd7H3JpudFN1JOo+foL+k5e/vre2H1If28nmRuQH+Y59qnka4rJScub0GWoMwUAUAUB8JoCBPpLkgz5mpsaYYf8AuKPSOscSZ72dR/CDv+A31NjTCilshbudZZbgmKwhd2O7bxw8xyHqTUnVqMNZsvdS9S/ozfSLgh5zwA3iPPE55t51DdzHiMTn7sdhzqpkCgCgFzXzRnf2jgDxL4l9Rv8A9verI1YSeWdir7KtYDLA1nIcvCNuInmmfEv8pOfQ+VJIjG0clRVFs9H5jRpi4CpvOBxPkBvNQiMPG8rlV2P2pkN3fMP30myn91d5/MD+Wk+hx4pU1jTXLU0mqHkhQBQBQBQBQGc27C+03JId8NgmB0Mhz887X4BV9keo12OEUec/T9+owzSZ2mPmagRjtEWtToCzXN03GWUqv9yLwj4tn4VZmrFS1UFyQy1UyhQBQBQC/rXpyO3TLn2HFj90frVkjZhqV+8KOj9HXukvG7m3tjwxnLjyHFvU7qluxoqVoUtFqxm0bqDZRYJjMrdZDkfhGBUXZkniqkudhkghVBsoqqo5KAB8BVTO23qzpQgKA6mMEbS8uI6efmKFM1nZnKhc53CZVh5VJaDtJMxTRtybLSQYblSUg+aNuI/C1XeqPXqw7Sk0NnaBpZiogjyZJjsgDjs5xj1Y7vjUJHKhBQV3yNT1W0QLS0htxxRfERzY72P4ia5t3Z87iKva1HPqWtQcQoAoAoAoCr1n0qLW1nuD9hCR5sdyj8RFSldnahS7WoodRO7NbMxaO71v3lzIXJPEgHAz8Cf5qtLc9HFyz4iy2ii30jKFjZmYKMcWIAGfM0Jpe2iHoTSNqyiG3mR9gcFO/HM+e/n50ZNSM75pLctag5BQBQHC9uVjRpGOAozvqS8IOcrGS2emLa5vDNfMwiX92mySp3/bxy5nr6VdrTQ9SpCcYWpmtWV1HKgeJ1dORUjHpu4elUPJlFxdmd6ggKAKAKArNZJ3jtpJozh4sSL57BBIPkVyD5GpL04qUsr2ehYwXCSxxzR/UlUOvlnl6g7qg5K6bjLdaH2hYxDXyLZvH8wp+WP0rqj3KTvEbey7RL3t49/OMpEfD0L48IHko3+pFVk7Kx5/Eq6p0+zju/Q2iuR8+FAFAFAFAFAZV2uaaNwP6PtUeV0bbm7tSwUKDhTjnvyemBV4q2p7HDqPZ/zpuyeiuX/9Jww2EMoOIY4EI6nwjd/eJ3etRzKQpylUknu2xbbRpuIRe342gyl44GcpDBHyeQr4mYjfgbz+UmjtLS7OlpbRvdt+BVaqS21xd4ihjhki8aSQ7YV1BAZXRyTvB41L0R2qxnTp95tp9bfQ0W6uUjUvIwRRxLHAFQYUm3ZFHPrbEvi7i5KffEDbPrvwcUsdlh5PmviW2jNJRXEYlhcOp5jkehHEGhynCUHaQpdpF6zLFaRb3mcLjrvH6kD41MTbhYqMXUkQtM9j86LtW8yykDejDZJPPB3g++KlTOdLi0G7TVhP0PpW50dcHwspU4kifIDDoR16GpaTN1SnCvDR+TNxtbhJYo54jmORdpTzHUHzB3H0rmeLqm4y3R0oSFAFAQ9Mpm3nHWNh8VNSi9L215i92U3/AHlg0ROTBJgeSyeIf4tqklqdMZDLXv1XzQ2McAmoOCM2udX3v7m8WIAtGkSgngCzrkn0TaPtV72PRq4hUFFy8fT7mvav6HjtLeO3iHhQcebE7yx8ya5t3Pn61WVWbnLmWNQcgoAoAoAoDhf3IiiklPBFLH0UE/pQtCOaSj1Mn1QmbYs5w7rLdXzlwpwJFG87fMqo2sDq2eVXZ7OJSvOFtIxVvA7dqrbNrGo3I0w2sdMMfz31MTpgl37+B67Yb8Rwi2XKhtgr910UEEA8NxC5HmKROfDY5u8/H4lX2S6IZe9unUgMNhM8xnLEeW4D41MmaMbUTtBF3rRrPbW8imQGWRR4UGMKT9roDyz8KhI50cPOUelysXXy7MX0kaPJt847wM2N3HfjHvwpYn8NTzZM+vQstV7yGeU3NqNlZVKzx8NmRcMjbt28EjI41DKVoyjHLPls/Ar9XB9M00jbytuhYg8nG7B8w7D8NS9EdMZLs8NZc9DYa5nzxn3bBq4k1q10qgSw7yRxZM4IPXGcj0PWrwep6fDMQ4VOzez9SL2TT7ejHU/1UpA8gQrY+LH40ludccsuJT6oZqg5hQBQETSrYif0xUo60VeaM97G7jEt3HyaJW91cD8mNWkauIR9h+P0H/TF4sUTuxwAN/oN5qqM1CGaaPHZTZkWr3TjD3Mhf+UEqo/M+9RLcy8SqZquVckO1VPPCgCgCgCgCgKjW7/+G7/7L/5TUrc7Yb+tHzRmXZyXaK0fZHc28szO5OO7Yx4Ufzd5/hq8j18Ylnkuckvfr9LDZrFodbuB4GOM71b7rDgf+cjUI5UqjpyzIg6MuL0QJa3VpHN3eAk3eLggbhkEE5xzA9qaCVOlndSErX5WJesGlRa2zSvjaAwAOBY8APKiLUafaTtyM107q0FktPpE4iknjM07yHcmSSABxLbO4LzNWUjZTxLkpuKuk7Kw7avW+kbuzS1UJbWoXYEzJiSaPliPOF2hxOd+aq7Jnn1pUKVVzesul9E/MrOzrR7w3V/GwACMEOz9XaDNw8sfnUtmrEzU6cGuZf6iIiaU0mmPEwRwfIjLD8TColsjJjruhTfLU0OqHlFRrcoNjdg8O5f/ACmpW53w39aPmhE7Ht2j7g9Zt34Uq0tz08friI+X3G2oOIUAUBU6yT7MLeSsfgpqUacNG8riD2VRlLucNuxDv92Q1aRpxnehG3X7k3WXSD6Quo9H253FsOw4ADefYAZPmAKLRXEEsPSdSRstlarFGkSDCooVR5KMCuR83KTlJyfM70KhQBQBQBQBQHC/thJFJGeDoy/iBH60LQllkpdD84aP27K7SG8WVIllVpY8kBtk7nxwYA7x1xXZ6rQ+qm1WpuVO17aM3FWDKrowdGGVdTkMPI1zPGT5PfofCaEiZpS2/pHSUVkCe4gG3MQce2eu8D3PSrbI1Of4eg583sL+sl0yaWaK0BuMAQlJmMok3ZdCXJOAfMYIJqVsdaEFLDXqac9NPQl2Ot93bxLFDMDJtFUtTEWaLfuTaY7WB555YqLITwdGbzS+N9xi1aTuNuN22pAO8uG+9NMchfVVHzFQcZx7S2XbZeSOXZsxm0ppCcb1ChM8s5AH/wBZqZbFOJWjRhA1GuZ4oudolx3ejbtusez+MhP/ACqY7mrBRzV4rxF3s3tzHouLP9bI7+wOyP8ALVnubsU82Jl4JIYKg5hQBQCprjKWjeNfrSFYl9XYL+p+FWRvoLJDM/MzW/0q8U92sJxtsU2hx2VYgAeuBV7GunC8I36GudlOp5tIjcTLieUcDxjTjs/3jxPsOtc5SueHxDF9rLJHZfNj9VDzQoAoAoAoAoAoAoBD7U9TmvY1mgGZ4gRs/wBonHZH8QO8epq8ZWPR4fi1Rllls/kY/orT95YsyRSPHv8AFGwyM+aMMZ9qu0me5UoUqyu1fx/UY49a2kUXF3cq5XfHbxLsguOBcAAHB38x+VRY5Rw0Y6RXvZDt9YIre3aSC4uTez75ChCxrkkgHIJYgHlzPGlrkSozq1LTisq26kG1lm0beRPOmXC7bqeOJVOd/wB7B+O6p3R07tem1Hb7DHpftHjwTaQbMrDfI6rkewzk+pqFE4wwb/O9Ogq2esN1smGLe8jEllBMjs3Hfk7+W4VaxrcILV7I27s11caytAsu6WRttx93IAC58gPiTXKTuz5zHYhVqt47LRDZVTEIHbNd4s0gXe88qqF5kLv/AM2z8atDc9Lhkf5rm9ki3t7QQxQ244RRqnqQN5+NBGWZub5u57oWCgOF3cBF8+QqTpTg5sR7fSYlunkXxRWUbSk8duYgpGB18Z3dSDVmbMQrQUP7nb3c/kWHZv2dFGW7vV8fGOI/ZP3n/i6Dlz38IlLkjHjsepLs6W3N/Y1SuZ44UAUAUAUAUAUAUAUAUBR60aq299HsTLhvsyLgOp9eY8juqU7GjD4qpQlePw5CJa9jCBj3l2xXkEQA+5JI+VXznoy4u7d2PzGDQHZhZW0iynbmZTle8I2QRwOyAMn1zVXNszVuJVqiy7LwLDWzUe1v2V5dtJFGNtCASOODkEHj86KTRyw+NqUFaO3iRtG9mmjolKmEyk8WkYk+2MAewpmZefEa8ne9vIvtF6AtbffBbxxnqqjP4uNQ22ZqlepU9uTZZVByPjMAMk4A4mgMqsLr+k9KtdcbWzGI+jvv2T7t4vRVq+yse1KH4fDqn+aW/kOLHJyag4pWCgK/SWl44VLMwAHEk7h/qfIVNjvToSluZhrHrdJct3NsGwx2cgeJ87tlRyB+Jq6R6UKUaauzWuzvVYWNqFcAyyEPJ5H7K/y/nmucndnz2NxPbVLrZbDVVTGFAFAFAFAFAFAFAFAFAFAFAFAFAFAFAFAFAZj2j60vM40XY+OWQ7MrLy6oDy/iPIbuuLxXNnrYHDKC7erstvv9i60DohLS3S3Q52d7v/aOeLenIeQpuRObqTc5f6R40npyCAZkkUep/wCZ9qWO0MPOQi6c7Rs5WBc/xNuHw4n3xVlE3UsIo6sXtHaJv9JyeFWcc3bdGnvw9hk1LaRerXpUF3n7uZsOpOoEFjiRj3s/3yNyeSDl68fThXOUrng4rHTr6LSPT7jjVTCFAFAFAFAFAFAFAFAFAFAFAFAFAFAFAFAfGYAEk4A3knlQGT9oHaaMNbWLb+Dzjl1Ef/6+HWukYdT2sHw789Ve77iloLWi3sUbuIWlnceOWQ4/lUDJC9eZ+VWaub6mHlVffei2SOF5rff3TbCEjPBYlOf1NLJHSNGlTV/UnaJ7NdIXJ25V7oHi0x8X4d7Z9cVDkkZ6vEaFPRa+RoWr/ZXZwYabNw/8e5PwDj7k1VzZ5lbidWekdF8x6hiVFCooVRwCjAHoBVDzm23dnuhAUAUAUAUAUAUAUAUAUAUAUAUAUAUAUAUAUAl9qOme4tlTukk71tnx5Kr5lR9b0Jx61aK1N/D6Wepe9rdBE1b7NVuvG9yVB34WMD4eLA+FXcrHo1+Iuloo/MedGdluj4sFkeY//I274LgVRzZ59TiVeWzt5DZY6OhhGzDEkY6IoH5VW5inUlN3k7kqhQKAKAKAKAKAKAKAKAKAKAKA/9k=;" vertex="1" parent="1">
          <mxGeometry x="528" y="240.66" width="48.14" height="49.34" as="geometry" />
        </mxCell>
        <mxCell id="COHNruM6YLDFT75V-Skk-24" value="" style="shape=image;verticalLabelPosition=bottom;labelBackgroundColor=#ffffff;verticalAlign=top;aspect=fixed;imageAspect=0;image=data:image/png,iVBORw0KGgoAAAANSUhEUgAAAOEAAADhCAMAAAAJbSJIAAAAclBMVEX///8Ol0gAlEJrtYQAjTBns4EAkz4AjS8AkDYAlEEAkjwAkTkAjzOl0LP2+/jX6t2z17/O5dY+o2Hn8+ut1LmQxaF8vJG93MfD38zu9/Hb7OGdzKwbmU1dr3k4oV2XyKeHwZpTq3FJp2opnVR3uo1brnYrRAzGAAAHrElEQVR4nO2d65qiOhBFTcQQro3iDW+trf3+r3jGmTPTIgkkRUJSfKz/Q2ePVFE7hKrZbGJiYmJiYmJiQpP8sDzkrhdhkewSpjwNL5nrhViiiBJKntAkKlwvxgIfK05+4KsP1wsyTD4PKHmFBvNRxeNnGJF3ovDT9bKMsSNxQ9+TmOxcL80Ih69UqO9J+nVwvbze5I+QSgX+CsfwgTwcM85a9D1hHPPTcX9POvQ9Se571wsFUn6nbTfoy62a3krXi4VwFTwhZETh1fVytVmzrgCsw9ja9ZK1WF54t6g3+GXpetnKVItALQDr0GBRuV66GhuNAKwThRvXi1egoOISTY2Y+u6r6h4Jgt++Kp+3lmhq0NBfX3UMoAFYJwqOrqUI2Z9USjQ1kpN/hVybR4Lgm6/KtwYCsA4Ntx6FY5bolWhqsMQXX7VU8kgQkrsPhZyyR4JA02/nvkrHI0Fw7at0PRIEl77qA+CRIPCLm0IO6JEguPFVG0MlmhrD+yrZNrY9ht0gN12iqTFcIdexjW2PoTbIj+mQAVgnSu37KpMeCYJtX1XeXARgHZsb5BY8EoRfvsqSwLUVjwTBjq+y55EgmPdV5dmiR4JA07PRcLx6EYB1qEFfVUS+BGAdZujg0VAeCYIJX1W9H/XxCxrOe/qqz0E9EoQo6HPwaHiPBKGHrzq7L9HUSM8wgRcMP+Af4gtE4MLPR4QYttAXuA9cr1qLQN9UXXx+SDSh2vfpIXS9Zk1C3U2cDE+a+UOsa6i2vj/p34l0bfEcEIaUxUkSRz0DOHpeRP8adG5bIeXR4ljsiuz6xTn4BqCcbNe74njmulFiXWF6ezHd+3nnwVkx8eVf0j8meiuwrJDGb4+j/ArZE0ivL5eoLlp3gl2F9NS0MOVKOxu/b/eutNZgVWEs9GhbTefMHm8XyL1RyCXuZaMnkTUusNe4gE2F8oJprnOjMsErCY3S0abClmpCJ5ICwa2eqadkmwrTloqQqF/mLvjnB3UPblNh2PJSr1SOJCry6bl6/W9TYdB2nb3qGqnQw6qbVGcKZ0fFGw2vwtlDLaEiVjj7Uqq+MCvMTyrXwqxQLaGiVjhbKiRU3ApnWXdCRa5QIaFiV9idUNErnHUlVPwKy45QxK+wK6GOQGFHQh2Dwtm27czRKBS2JtRxKGxLqCNRWMnv05EobEmo6BTKjtWtZQkVncJv2QacLKGiU7hgsh24mzih4lMoP+JyF14an0LKZH9SnFARKiRcdqTuQ5RQMSokoexE3VqwcJQK5W80rs0bFadCEkkTauOlElKF8leLjYSKVCGJZWcGGwkVq0LCZd9+vidUtArlCbWoS8SrUH5osJ5QESuUJ9Tv14SKWaFaQsWskDDZUfrq5UdErbAlof4owK2QBN0JFbnClgr179tT7AoJk32A9TeholcoT6j/n11Dr7AloUYjUUiSq+RP/fm0YwQKSSj7pnUXjkQhCWWftD6P2o5CoeS09Oz3d3LjUEhFZ0h/c6HjUEjYt+TP5Swah8K2hDoShfKEWtxGolCeUIUfgWJUKE+oo1EoT6hjUUiYMOLGpFCeUEejkATK3SyxKiSBag8ktApJophQ8Sqkp7ErJJFaQkWsUDGhYlZIUpWEilohCRUSKm6FKgkVuUKFhIpcIYm+xq6QJF0NSdAr7Eyo+BV2JdQRKCS8tUmnJwpFJxEWqo1J6Kmtg7UnX6uLfgX1bgptCbX04zeMBRuEuUZDwvi9p8kPhXpnX6udPwQ2QWNpvxKqtLHGTWMVNru3BM2X9OKz3NILSA4yfKjfpHYV0tX7vz5q9o0OxDvhOv9PlnsMvZUmS+22oIGouGkes3WmkPBastgD+p6yRr/8aqXVL8x2N7P4Z8Rm9YB1zUwv65cnY/7J9VZgvV8bTVfZsqwOxQLcjo7G/Guz+yircpmdtRu+2e+5RyjjaZpq9pFrXCN5XoQP0VXwga4zpLxuEPOJqcfuE6bb9Fo/4Tsm1R6W0CueXKArcJb5NM6iG8hMD73S0jFaL5b/Umk+cl1COWh+QEmw5FNGoPNK/JgN1AUVlu2qP6OTAWt69J3/5HpGVxcJ6T/D6wjv7GydiBuZw+ZsVl4XBmfpHVY+hmO6MjkPcUd967MfU9MzLTcOxx42iVILc0kHnB3bhbXZsr7MtrI5H3jN3IdjbHnG89VxOEa13vtWKL8djtihwSCz1pfOCrnkZHquo4zMybxOO7M5JTiYuUrD7SDjjv8x9ODq4UZW/7AfcLBebMAjQfgcyFcZ8kgQqvkA4dh/TGUvDivbhRw36pEgFFZ9VUzNjIvthz1fZcUjQajOVsKRhmeXAVhneTcfjtz46O1+rGOzhRyz7JEgXA2ODo6Cq2s5IsqbKV8V9NzGtoeZDfKkcbTGJzLgWMAfGB/QI0HIH7125GhgbBvbHn18lQuPBAE6sLzHCPHBgfiqSNqz1kuquWY40sCpR4Kgt0FucxvbHkWk+uRgXngkCBulgbLUF48EQcFX0cAjjwRheW8v5HzzSBDWLRvkLPbPIwHIt5JwpGmPoz5+IfZV/nokCE1f5bdHglA/eORwG9seLwePDB718YvDIuQxi3m4wOGRIOT77Jjtx/n7TUxMTExMTExM9OE/qGSc93+/TWEAAAAASUVORK5CYII=;" vertex="1" parent="1">
          <mxGeometry x="678" y="240.65999999999997" width="55" height="55" as="geometry" />
        </mxCell>
        <mxCell id="COHNruM6YLDFT75V-Skk-42" style="edgeStyle=orthogonalEdgeStyle;rounded=0;orthogonalLoop=1;jettySize=auto;html=1;exitX=0.5;exitY=1;exitDx=0;exitDy=0;" edge="1" parent="1" source="COHNruM6YLDFT75V-Skk-28" target="COHNruM6YLDFT75V-Skk-11">
          <mxGeometry relative="1" as="geometry" />
        </mxCell>
        <mxCell id="COHNruM6YLDFT75V-Skk-28" value="&lt;font style=&quot;font-size: 12px&quot;&gt;developer&lt;/font&gt;" style="text;strokeColor=none;fillColor=none;html=1;fontSize=24;fontStyle=1;verticalAlign=middle;align=center;" vertex="1" parent="1">
          <mxGeometry x="11.669999999999984" y="150" width="100" height="40" as="geometry" />
        </mxCell>
        <mxCell id="COHNruM6YLDFT75V-Skk-29" value="&lt;span style=&quot;font-size: 12px&quot;&gt;Capistrano&lt;/span&gt;" style="text;strokeColor=none;fillColor=none;html=1;fontSize=24;fontStyle=1;verticalAlign=middle;align=center;" vertex="1" parent="1">
          <mxGeometry x="262.18" y="280" width="103.82" height="39" as="geometry" />
        </mxCell>
        <mxCell id="COHNruM6YLDFT75V-Skk-30" value="&lt;span style=&quot;font-size: 12px&quot;&gt;user&lt;br&gt;&lt;/span&gt;" style="text;strokeColor=none;fillColor=none;html=1;fontSize=24;fontStyle=1;verticalAlign=middle;align=center;" vertex="1" parent="1">
          <mxGeometry x="248.18" y="432" width="100" height="40" as="geometry" />
        </mxCell>
        <UserObject label="&lt;span style=&quot;font-size: 10px ; font-weight: 700&quot;&gt;アプリケーション&lt;br&gt;サーバー&lt;/span&gt;&lt;br style=&quot;font-size: 10px ; font-weight: 700&quot;&gt;&lt;span style=&quot;font-size: 10px ; font-weight: 700&quot;&gt;unicorn&lt;/span&gt;" placeholders="1" name="Variable" id="COHNruM6YLDFT75V-Skk-32">
          <mxCell style="text;html=1;strokeColor=none;fillColor=none;align=center;verticalAlign=middle;whiteSpace=wrap;overflow=hidden;" vertex="1" parent="1">
            <mxGeometry x="508" y="290" width="100" height="50" as="geometry" />
          </mxCell>
        </UserObject>
        <UserObject label="&lt;span style=&quot;font-size: 10px&quot;&gt;&lt;b&gt;webサーバー&lt;/b&gt;&lt;/span&gt;&lt;br style=&quot;font-size: 10px ; font-weight: 700&quot;&gt;&lt;span style=&quot;font-size: 10px&quot;&gt;&lt;b&gt;nignx&lt;/b&gt;&lt;/span&gt;" placeholders="1" name="Variable" id="COHNruM6YLDFT75V-Skk-33">
          <mxCell style="text;html=1;strokeColor=none;fillColor=none;align=center;verticalAlign=middle;whiteSpace=wrap;overflow=hidden;" vertex="1" parent="1">
            <mxGeometry x="655.5" y="290" width="100" height="50" as="geometry" />
          </mxCell>
        </UserObject>
        <mxCell id="COHNruM6YLDFT75V-Skk-38" value="&lt;span style=&quot;font-size: 12px&quot;&gt;Route 53&lt;br&gt;&lt;/span&gt;" style="text;strokeColor=none;fillColor=none;html=1;fontSize=24;fontStyle=1;verticalAlign=middle;align=center;" vertex="1" parent="1">
          <mxGeometry x="367.55" y="429" width="100" height="40" as="geometry" />
        </mxCell>
        <mxCell id="COHNruM6YLDFT75V-Skk-47" value="" style="endArrow=classic;html=1;" edge="1" parent="1">
          <mxGeometry width="50" height="50" relative="1" as="geometry">
            <mxPoint x="350" y="280" as="sourcePoint" />
            <mxPoint x="420" y="280" as="targetPoint" />
          </mxGeometry>
        </mxCell>
        <mxCell id="COHNruM6YLDFT75V-Skk-48" value="" style="endArrow=classic;startArrow=classic;html=1;entryX=0;entryY=0.5;entryDx=0;entryDy=0;" edge="1" parent="1" target="COHNruM6YLDFT75V-Skk-19">
          <mxGeometry width="50" height="50" relative="1" as="geometry">
            <mxPoint x="340" y="418" as="sourcePoint" />
            <mxPoint x="388.37" y="392.7" as="targetPoint" />
          </mxGeometry>
        </mxCell>
        <mxCell id="COHNruM6YLDFT75V-Skk-50" value="" style="endArrow=classic;startArrow=classic;html=1;exitX=0.5;exitY=0;exitDx=0;exitDy=0;entryX=0.527;entryY=0.765;entryDx=0;entryDy=0;entryPerimeter=0;" edge="1" parent="1" source="COHNruM6YLDFT75V-Skk-20" target="COHNruM6YLDFT75V-Skk-25">
          <mxGeometry width="50" height="50" relative="1" as="geometry">
            <mxPoint x="598" y="360" as="sourcePoint" />
            <mxPoint x="648" y="310" as="targetPoint" />
          </mxGeometry>
        </mxCell>
      </root>
    </mxGraphModel>
  </diagram>
</mxfile>
